<?xml version="1.0" standalone="no"?>
<!DOCTYPE svg PUBLIC "-//W3C//DTD SVG 1.1//EN" "http://www.w3.org/Graphics/SVG/1.1/DTD/svg11.dtd" >
<svg>
<metadata>
Created by FontForge 20110222 at Thu Jul  3 05:16:58 2014
 By deploy user
Originally traced with Glyphtracer
</metadata>
<defs>
<font id="Quadrata" horiz-adv-x="713" >
  <font-face 
    font-family="Quadrata Preciosa Extended"
    font-weight="500"
    font-stretch="normal"
    units-per-em="2048"
    panose-1="2 0 6 3 0 0 0 0 0 0"
    ascent="1638"
    descent="-410"
    x-height="397"
    cap-height="855"
    bbox="-8 -490.528 1387 1452.18"
    underline-thickness="50"
    underline-position="-100"
    unicode-range="U+0020-20AC"
  />
<missing-glyph horiz-adv-x="748" 
d="M68 0v1365h544v-1365h-544zM136 68h408v1229h-408v-1229z" />
    <glyph glyph-name=".notdef" horiz-adv-x="748" 
d="M68 0v1365h544v-1365h-544zM136 68h408v1229h-408v-1229z" />
    <glyph glyph-name="NULL" horiz-adv-x="0" 
 />
    <glyph glyph-name="nonmarkingreturn" horiz-adv-x="682" 
 />
    <glyph glyph-name="exclam" unicode="!" horiz-adv-x="299" 
d="M100 631q18 27 28 34t19.5 2t30.5 -28q17 -20 23.5 -67t9.5 -178l5 -212l-65 -36q-56 -33 -65 -21q-6 8 25 34q15 12 17.5 98.5t-8 176t-27.5 108.5q-22 24 -21 38.5t28 50.5zM148 116q41 22 55 27q10 0 13 -31.5t-2 -64.5t-15 -39q-17 -11 -26 -11.5t-16.5 8.5t-25.5 38
q-8 15 -11.5 20.5t-6 14t-2 11t6 8.5t11 8.5t19.5 10.5z" />
    <glyph glyph-name="quotedbl" unicode="&#x22;" horiz-adv-x="398" 
d="M271 759q33 6 46 10q14 3 22.5 -29.5t8.5 -81.5q-1 -44 -6 -45q-4 -1 -12 14q-6 11 -20 19.5t-26 8.5q-14 0 -25 11t-17 27q-11 41 -7 50.5t36 15.5zM107 685q-8 25 0 30.5t48 5.5q41 0 53.5 -10t25.5 -56q20 -63 3 -136q-11 -46 -15 -48l-1 9q-1 6 0 18q2 124 -65 124
q-39 0 -39 13q0 7 -10 50z" />
    <glyph glyph-name="numbersign" unicode="#" horiz-adv-x="1044" 
d="M406 822q32 23 39 23q1 0 1 -14.5t-1.5 -39.5t-4.5 -54l-12 -108h101q76 0 90 7t21 48q11 53 63 90q51 36 56 31q7 -6 -8 -101l-15 -94l104 6q40 1 64 2t33.5 -6.5t9 -19.5t-9.5 -35q-10 -25 -106 -37l-97 -10l-6 -74q-3 -31 -0.5 -55t8.5 -28q12 -9 113 3l97 12v-60v-60
h-124q-91 0 -109 -5.5t-25 -38.5q-12 -59 -22.5 -76t-51.5 -45l-53 -38l11 64q10 54 22 103q6 28 -8.5 32.5t-104.5 0.5l-121 -5l-18 -64q-19 -66 -68 -106q-37 -31 -49 -9q-7 12 -1 38q3 16 10.5 52.5t9.5 47.5l12 49h-103h-103l27 50q17 35 35 42.5t79 7.5h37t24.5 2
t17 4.5t9.5 9.5t7 14t5 21q4 25 6.5 37.5t3 27.5t0 20.5t-6 13t-11 9.5t-19.5 4t-26.5 2h-36.5h-101l27 49q15 33 34 41.5t77 12.5l86 5l26 88q10 36 27 69t29 44zM625 477q8 26 -6 31t-92 5q-31 0 -49.5 -1t-34.5 -5.5t-23 -11.5t-12.5 -21.5t-6.5 -32t-1 -47.5
q0 -34 14 -40t93.5 -6t93.5 6t14 40q0 40 10 83z" />
    <glyph glyph-name="dollar" unicode="$" horiz-adv-x="580" 
d="M199 820q31 38 41 10q9 -21 12 -88q2 -52 6 -72t12 -27.5t28 -9.5q35 -5 84 -47.5t49 -67.5q0 -23 -24 -21q-27 2 -43 31q-17 33 -68 50t-110 11t-97 -34q-20 -15 -21.5 -22.5t15.5 -23.5q10 -10 51.5 -28.5t89.5 -33.5q38 -12 62 -20.5t45.5 -19t31 -18.5t14 -20
t1.5 -22.5t-14 -27.5t-26 -34t-40 -43q-54 -58 -66.5 -82t-6.5 -57q9 -42 -7 -72.5t-46 -30.5q-23 0 -23 50q0 51 -28 61q-23 7 -72 49t-49 54q0 11 35 31q22 14 35.5 9t45.5 -39q19 -20 37 -34.5t24 -14.5q20 0 88 75t60 87q-4 6 -42.5 20t-85.5 25q-96 23 -138 53.5
t-42 77.5q0 23 18.5 42t70.5 49l89 51l-9 75q-8 73 13 99z" />
    <glyph glyph-name="percent" unicode="%" horiz-adv-x="746" 
d="M320 376q156 199 216.5 266t83.5 67q36 0 36 -19q-1 -27 -89 -130q-123 -147 -231 -290q-169 -222 -197 -250q-26 -26 -40 -15q-3 2 -13 12q-18 18 16.5 72t217.5 287zM182 525q33 12 62 6t43.5 -25.5t17.5 -46.5t-17 -56q-25 -38 -64 -40.5t-70 31.5q-27 31 -18 74
t46 57zM245 454q0 13 -11.5 19t-26 2t-21.5 -16q-10 -18 7 -35t34 -7q7 5 12.5 16t5.5 21zM520 268q41 44 113 17q23 -9 26 -69.5t-20 -82.5q-17 -18 -42.5 -19t-48 10t-38.5 33.5t-16 47.5q0 16 7.5 35t18.5 28zM590 225q-16 3 -23 -4t-7 -25.5t7 -25.5t23 -4q11 2 19.5 11
t8.5 18.5t-8.5 18.5t-19.5 11z" />
    <glyph glyph-name="ampersand" unicode="&#x26;" 
d="M191 672q45 29 85 51t50 23q12 0 33.5 -25.5t41.5 -62.5l46 -88l-69 -94l-71 -94l82 -98l83 -99l76 66q73 65 75 51q1 -13 -63 -76l-66 -65l36 -46q24 -34 35 -37.5t38 14.5q40 26 36 9q-3 -15 -38 -59l-39 -50l-58 67l-57 64l-81 -59q-35 -26 -54.5 -39t-40.5 -22
t-32.5 -9t-28 8t-29.5 20.5t-35 36.5l-71 76l43 53q36 43 86 108l43 53l-85 109q-84 111 -84 124q0 6 33 32.5t80 57.5zM368 597q-31 69 -58 90.5t-58 2.5q-4 -3 -34.5 -21.5t-45.5 -28.5l-46 -28l78 -98q32 -40 59 -69.5t32 -29.5t22 17t36 41l45 59zM413 158q-7 12 -80 98
l-69 76l-52 -70q-21 -29 -36 -57t-15 -40q0 -33 37 -74t67 -41q24 0 62.5 21.5t65.5 47.5t20 39z" />
    <glyph glyph-name="quotesingle" unicode="'" horiz-adv-x="249" 
d="M120 674q0 34 8 42t42 8h49v-111q0 -46 -5 -86.5t-11 -50.5q-12 -16 -12 -7q0 6 5 28q11 51 -1.5 89.5t-41.5 38.5q-20 0 -26.5 10t-6.5 39z" />
    <glyph glyph-name="parenleft" unicode="(" horiz-adv-x="332" 
d="M156 545q87 69 93 63q2 -1 -3 -10.5t-16 -24.5t-26 -31q-27 -32 -36 -51.5t-12 -52t-3 -119.5q0 -124 6 -149.5t44 -53.5q49 -35 49 -82q0 -19 -3 -33t-8 -14q-15 0 -91 68l-80 68v176v177z" />
    <glyph glyph-name="parenright" unicode=")" horiz-adv-x="315" 
d="M98 595l31 35l53 -63l55 -61v-209q0 -107 -2.5 -148t-10.5 -65.5t-30 -56.5q-19 -26 -35.5 -41.5t-22.5 -11.5t-1.5 19t17.5 32q23 28 26.5 65t-3.5 169q-4 100 -9 139t-14.5 59t-35.5 49q-37 39 -39.5 51t21.5 38z" />
    <glyph glyph-name="asterisk" unicode="*" horiz-adv-x="613" 
d="M300 483l37 40l5 -68q6 -68 16 -68q5 0 20 17t32 41q10 16 20.5 28.5t17.5 18.5t10 4q2 -4 -6 -20.5t-22 -35.5q-35 -49 -35 -60q0 -2 10 -4.5t28 -4t38 -1.5q47 0 59.5 -5t6.5 -21q-10 -30 -10 -33q0 -7 -38 -7q-41 0 -49 -12.5t21 -32.5q20 -13 23.5 -24.5t-6.5 -31.5
q-7 -11 -10.5 -15t-7 -7.5t-11 0.5t-14.5 8t-25 16l-48 35v-65q0 -64 -32 -93q-21 -20 -27 -12q-7 8 -16 87l-12 102l-56 -64q-48 -56 -54.5 -48t39.5 68q42 53 42 64q0 3 -11.5 3.5t-31 -0.5t-42.5 -4q-77 -11 -79 3q-1 3 1 8q3 10 15.5 21t27.5 19q17 7 24.5 18.5
t4.5 22.5q-7 27 6 48q8 14 22.5 11.5t47.5 -26.5l53 -39l-10 39q-5 23 1 41t25 39z" />
    <glyph glyph-name="plus" unicode="+" horiz-adv-x="530" 
d="M247 475q36 27 47 27q10 1 20.5 -36.5t10.5 -73.5q0 -25 10.5 -31.5t49.5 -6.5q38 0 47 -6.5t6 -29.5q-3 -22 -15.5 -31.5t-42.5 -11.5q-16 -2 -23 -3t-15 -4.5t-10 -7.5t-4.5 -15t-2.5 -21.5v-33.5q0 -46 -8 -70t-32 -46l-38 -36l-11 38q-10 43 -10 88q0 52 -18 71
t-78 30q-53 11 -58.5 17.5t13.5 35.5q28 36 76 36q31 0 39.5 8.5t8.5 39.5q0 48 38 73z" />
    <glyph glyph-name="comma" unicode="," horiz-adv-x="348" 
d="M143 178q48 49 70 42q14 -4 3 -32q-5 -10 4.5 -31.5t26.5 -43.5q49 -57 40.5 -110.5t-78.5 -132.5q-80 -91 -101 -78q-22 14 32 44q65 40 65 92t-65 122q-50 56 -50 63q0 4 16 23.5t37 41.5z" />
    <glyph glyph-name="hyphen" unicode="-" horiz-adv-x="431" 
d="M91 375q20 20 141 15q76 -2 98.5 -8t22.5 -23q0 -10 -5 -15t-20 -8.5t-42.5 -3t-73.5 1.5q-141 3 -141 13q0 8 20 28z" />
    <glyph glyph-name="period" unicode="." horiz-adv-x="315" 
d="M128 71q70 61 86 48q6 -4 -2 -22q-3 -11 0 -28t12 -30q13 -21 8.5 -34.5t-31.5 -39.5l-42 -42l-44 47l-47 48z" />
    <glyph glyph-name="slash" unicode="/" horiz-adv-x="663" 
d="M449 500q102 151 125 151q9 0 9 -23q0 -10 -4 -17.5t-10 -7.5q-13 0 -140 -172.5t-235 -336.5q-78 -119 -101 -109q-22 9 -22 22t24 23q20 7 129 151.5t225 318.5z" />
    <glyph glyph-name="zero" unicode="0" horiz-adv-x="464" 
d="M101 597l35 70h124h125v-285l-2 -287l-50 -54l-49 -55l-96 60l-98 57l-12 213q-8 147 -4.5 190.5t27.5 90.5zM317 329l5 255h-78h-80l10 -177q12 -169 12 -239q0 -41 9.5 -57t41.5 -32q22 -12 40 -17t22 0q5 5 10 83.5t8 183.5z" />
    <glyph glyph-name="one" unicode="1" horiz-adv-x="348" 
d="M128 507q25 38 48 65.5t28 27.5q6 0 11.5 -79t6.5 -189q2 -79 4 -129t5 -82t7.5 -44.5t10.5 -11.5q19 5 20 -9q0 -15 -20 -24q-3 -1 -18 -7t-32.5 -13.5t-32.5 -14.5q-17 -7 -31.5 -11t-22.5 -4t-9 4q0 6 9.5 12.5t23.5 10.5q24 6 28.5 44t4.5 217q0 216 -10 229
q-4 5 -13 -7t-13 -29.5t-2 -29.5q8 -25 -6 -36t-37 3q-12 7 -3.5 30.5t43.5 76.5z" />
    <glyph glyph-name="two" unicode="2" horiz-adv-x="398" 
d="M131 534l62 63l63 -62q25 -24 43.5 -48t18.5 -31.5t-29.5 -53.5t-71.5 -100l-101 -136l37 -58q15 -24 31.5 -41t26.5 -17q23 0 41.5 26t11.5 49q-10 23 8 33.5t32 -10.5q8 -13 -6.5 -34.5t-56.5 -58.5l-78 -70l-47 70q-46 71 -46 84q0 6 32 48.5t75.5 94.5t75.5 95.5
t32 50.5t-19.5 27.5t-46.5 41.5q-42 34 -56 38.5t-20 -11.5q-4 -11 -1.5 -25.5t9.5 -22.5q21 -27 1 -42.5t-47 4.5l-5 5q-16 14 -18 23t7.5 21.5t41.5 46.5z" />
    <glyph glyph-name="three" unicode="3" horiz-adv-x="431" 
d="M150 607q45 26 71 18t69 -61l50 -63l-43 -33l-45 -35l50 -43q25 -21 34 -36t12.5 -40t3.5 -87v-122l-73 -60l-73 -59l-58 34q-40 24 -50.5 43.5t-14.5 77.5q-7 85 14 115q10 14 21 3q4 -4 7 -31t3 -60q0 -53 7.5 -72.5t35.5 -37.5q31 -18 45 -17t51 27q36 26 43.5 46.5
t7.5 86.5q0 65 -9 89t-50 63l-58 57l45 36l44 35l-36 59q-18 28 -26 38.5t-20.5 16t-24.5 2.5t-37 -13q-45 -18 -41 -8q4 9 45 31z" />
    <glyph glyph-name="four" unicode="4" horiz-adv-x="514" 
d="M252 560l42 58l5 -167l5 -169l64 -10q41 -6 53.5 -15.5t12.5 -32.5q0 -18 -1.5 -22.5t-5 -1.5t-11.5 17q-7 13 -25 20.5t-39 7.5h-50v-122q0 -52 -4.5 -91.5t-12.5 -42.5q-14 -10 -16 97v25v134h-76q-92 0 -103.5 32.5t48.5 120.5q66 96 74 96q2 0 -4 -11.5t-18.5 -32
t-28.5 -42.5q-48 -72 -40 -92.5t86 -20.5h62v126q0 104 -8 111q-5 5 -20 -7q-22 -17 2 21q4 7 9 14z" />
    <glyph glyph-name="five" unicode="5" horiz-adv-x="448" 
d="M141 610q45 53 67 61t44 -19q15 -19 11.5 -35.5t-19 -18.5t-33.5 12q-16 14 -27 12.5t-31 -20.5q-33 -30 -34.5 -95t29.5 -87q18 -14 34 -9t50 37l57 48l39 -37q27 -24 33.5 -52.5t6.5 -121.5v-139l-103 -81l-102 -81l-47 36q-35 27 -40.5 61.5t24.5 44.5q9 3 14.5 -5.5
t5.5 -27.5q0 -16 8.5 -32.5t21.5 -25.5q18 -11 40 -2t75 50l87 68v101q0 69 -8 93.5t-40 55.5l-47 45l-53 -45q-29 -23 -39 -28.5t-19 -3.5t-26 17q-41 37 -35 102.5t56 121.5z" />
    <glyph glyph-name="six" unicode="6" horiz-adv-x="415" 
d="M153 567q30 35 56 62t29 27q8 0 -5 -17q-1 -1 -2 -3q-6 -8 -18 -23q-30 -39 -42 -55t-27 -39t-18 -30t-6.5 -26t-2.5 -29t3 -36q1 -11 2 -17l8 -102l58 64l58 63l48 -35q24 -18 33 -32t12 -37.5t3 -82.5q-1 -80 -9 -108.5t-41 -65.5l-49 -58l-78 68l-80 66l-5 178l-5 177
zM309 191q0 56 -3 78.5t-12 34.5t-33 26q-15 9 -20.5 12.5t-15 5t-12.5 0.5t-11.5 -8t-13.5 -14t-18 -24q-43 -59 -43 -113q0 -34 12.5 -52t56.5 -47q36 -23 57 -30t34 5t17.5 41t4.5 85z" />
    <glyph glyph-name="seven" unicode="7" horiz-adv-x="464" 
d="M165 648q79 55 86 55q8 0 80 -45q38 -24 51 -37t17.5 -30.5t4.5 -59.5q0 -82 -35 -136q-29 -47 -23 -53q4 -3 18 -3q19 0 20 -5q0 -5 -22 -29q-12 -13 -26 -23t-22 -10q-7 0 -26.5 -22t-37.5 -52q-28 -48 -34.5 -75t-0.5 -66q9 -52 4 -60.5t-37 4.5q-60 22 23 164
q53 89 46 101q-5 8 -29 1q-14 -3 -24 -2t-10 6q0 21 27 44t55 27q43 5 73.5 59.5t20.5 109.5q-7 37 -39.5 72t-71 51t-63.5 3q-22 -11 -25 -21t8 -31q10 -19 10 -31t-11 -23q-11 -10 -22 -5.5t-30 26.5l-33 40z" />
    <glyph glyph-name="eight" unicode="8" horiz-adv-x="365" 
d="M136 612q19 11 47 18t47 5q14 -1 21 -2t14 -5t9 -8t5 -16t4 -23.5t2 -35.5q5 -87 -22 -126q-17 -27 -17 -37t17 -24q14 -11 19.5 -42.5t5.5 -96.5q0 -79 -7.5 -108t-40.5 -68l-46 -56l-61 45q-20 15 -29 24t-17 18.5t-10 26t-3 33.5t-1 54q0 67 7 96t28 51q26 27 27 39
t-19 41q-11 17 -18.5 47.5t-7.5 56.5q0 39 9 57t37 36zM247 499v34.5t-2.5 23t-4.5 15t-9.5 8t-14.5 5t-22 2.5q-41 4 -48 -4.5t-7 -63.5q0 -60 20.5 -87.5t57.5 -20.5q18 4 24 21.5t6 66.5zM227 318q-30 22 -41 21t-35 -27q-28 -31 -28 -123q0 -61 7 -81.5t36 -39.5
q48 -32 68.5 -4.5t20.5 125.5q0 62 -6 89.5t-22 39.5z" />
    <glyph glyph-name="nine" unicode="9" horiz-adv-x="398" 
d="M74 477v80h124h124v-210l-1 -212l-61 -72l-63 -71l-37 40q-25 26 -27 36t16 25q14 13 24 13t25 -13q59 -49 72 71q3 31 3 73v123l-50 -28q-36 -23 -49 -20.5t-50 38.5q-32 30 -41 53.5t-9 73.5zM273 456q0 15 -0.5 21.5t-3.5 13.5t-6 9.5t-13.5 4.5t-20.5 2h-31
q-53 0 -63.5 -6.5t-10.5 -39.5q0 -21 10 -44t28 -39q26 -25 36.5 -25.5t37.5 22.5q37 31 37 81z" />
    <glyph glyph-name="colon" unicode=":" horiz-adv-x="315" 
d="M134 358q26 24 49 37.5t30 8.5q19 -9 0 -28q-18 -18 10 -48q20 -23 17.5 -33.5t-33.5 -42.5l-45 -45l-47 46l-44 47zM145 124q58 58 67 58q17 0 22 -14t-8 -29q-17 -19 2 -31q21 -13 16 -44t-32 -56q-25 -22 -35.5 -20.5t-42.5 34.5l-45 44z" />
    <glyph glyph-name="semicolon" unicode=";" horiz-adv-x="398" 
d="M130 311q88 75 87 43q0 -6 -5 -16q-4 -13 1 -29.5t18 -30.5q20 -22 17 -32.5t-37 -38.5l-50 -38l-46 43l-48 44zM169 107q58 58 68 58q11 0 19.5 -10.5t8 -20.5t-8.5 -15q-20 -5 21 -56q51 -61 42 -121.5t-82 -142.5q-21 -24 -42 -43t-35 -27.5t-17 -5.5q-6 5 5.5 21
t34.5 34q54 43 52.5 92t-61.5 113l-59 68z" />
    <glyph glyph-name="less" unicode="&#x3c;" horiz-adv-x="415" 
d="M188 339q111 100 121 93q8 -7 -68 -84l-77 -78l90 -75q65 -53 82.5 -89.5t-4.5 -70.5q-4 -7 -20 0.5t-44.5 30t-69.5 60.5l-123 112z" />
    <glyph glyph-name="equal" unicode="=" horiz-adv-x="448" 
d="M97 209q0 25 20.5 30t119.5 5q134 0 139 -18q4 -13 -76 -23q-74 -9 -140 -19q-43 -6 -53 -1.5t-10 26.5zM97 112q10 18 29 25.5t58 7.5q85 0 139.5 -12.5t54.5 -30.5q0 -14 -31.5 -19t-117.5 -5q-124 0 -135 9q-8 5 3 25z" />
    <glyph glyph-name="greater" unicode="&#x3e;" horiz-adv-x="365" 
d="M118 402q11 12 35 -0.5t73 -55.5q37 -31 63 -60t26 -39q0 -20 -77 -120.5t-92 -100.5q-17 0 -7 17q11 19 69 83q74 83 74 97q0 6 -27.5 28.5t-63.5 46.5q-71 47 -83.5 64.5t10.5 39.5z" />
    <glyph glyph-name="question" unicode="?" horiz-adv-x="415" 
d="M122 650q27 22 51.5 35t31.5 9q8 -3 71 -49q27 -21 36.5 -35t13 -36.5t3.5 -77.5q0 -65 -6.5 -94t-26.5 -50q-20 -22 -28 -56.5t-10 -114.5q-3 -87 -10 -115.5t-30 -45.5q-25 -17 -32.5 -13.5t-18.5 38.5q-13 34 -7.5 48.5t41.5 42.5q48 38 39 41q-8 3 -52 -26
q-38 -23 -41 -10q0 8 4.5 16.5t11.5 11.5q7 4 12 24t5 43q0 31 11 52t39 44q32 27 40.5 49t8.5 73q0 65 -10 87t-59 66l-45 38l-45 -35q-50 -39 -53 -26q-1 17 55 66z" />
    <glyph glyph-name="at" unicode="@" horiz-adv-x="994" 
d="M482 645q51 21 83 33t65 21t52.5 11t41.5 -2.5t35.5 -13.5t32.5 -28t33.5 -40.5t36.5 -56.5q23 -38 33 -73t10 -81v-84l-91 -42q-57 -24 -82 -31.5t-39 -4t-27 20.5q-12 17 -26 13.5t-55 -32.5q-31 -22 -48 -29.5t-37.5 0.5t-38.5 29.5t-50 68.5q-24 35 -34 53.5t-11 34
t7.5 25t29.5 23.5q24 16 28.5 15t-0.5 -22q-2 -12 12.5 -43t38.5 -66q17 -23 25 -33.5t18 -20t14 -11.5t12 -1.5t13.5 4t17.5 11.5q17 11 29 23t12 20q0 28 -40 90.5t-63 68.5t-23.5 9t11.5 11q5 2 17 10q60 33 89.5 19t56.5 -87q31 -85 45 -133q9 -37 29 -38.5t74 30.5
q47 28 50.5 65.5t-32.5 116.5q-28 61 -50 93t-55 47.5t-73 13t-105 -19.5q-212 -54 -307.5 -108.5t-82.5 -111.5q10 -40 97.5 -127.5t176.5 -147.5q63 -42 85 -48t72 7q69 17 75 14q4 -4 -16 -18t-55.5 -31.5t-71.5 -31.5q-45 -18 -65.5 -19t-50.5 14q-40 21 -126 107.5
t-155.5 174t-69.5 111.5q0 22 131 93t291 135z" />
    <glyph glyph-name="A" unicode="A" horiz-adv-x="945" 
d="M327 770q26 9 74.5 -6t66.5 -37q23 -30 172 -315q81 -158 122 -223.5t63 -72.5q41 -17 40.5 -57.5t-40.5 -67.5q-23 -16 -39 -18t-35 8q-14 8 -41 13.5t-52 5.5h-61l26 41q11 16 19 35.5t8 30.5q0 22 -41 106.5t-52 84.5q-8 0 -50 -27q-25 -18 -44 -19t-60 13
q-56 18 -94.5 3.5t-48.5 -58.5q-4 -22 -6.5 -33.5t-4 -25t-1.5 -19t4 -12t7.5 -8.5t13 -4.5t17.5 -3.5t25 -2q70 -6 70 -16q0 -9 -38 -60q-25 -31 -44.5 -39t-60.5 -4q-69 3 -119 3q-21 0 -37 3.5t-16 8.5q0 11 33 47t56 49q17 9 70 145t96 273.5t35 151.5q-11 17 -73 14
t-101 -24q-47 -24 -50 -12q0 23 46.5 63.5t81.5 47.5q9 3 24.5 6.5t25 6t13.5 4.5zM474 485q-23 45 -43.5 78t-25.5 33q-6 0 -35 -70.5t-54 -141t-19 -70.5q4 0 55 35q34 26 67 27.5t87 -20.5q25 -11 25 3q0 20 -57 126z" />
    <glyph glyph-name="B" unicode="B" horiz-adv-x="646" 
d="M271 692q38 31 70.5 33.5t49 -17.5t17 -61t-20.5 -92q-17 -40 -13.5 -51.5t38.5 -31.5q70 -41 108.5 -94t38.5 -108t-34.5 -120t-84.5 -109.5t-91 -44.5q-20 0 -113 4l-83 1l5 106q4 69 0 87.5t-23 18.5q-20 0 -20 4.5t18 25.5q44 47 18 149q-7 24 -16.5 29.5t-34.5 -1.5
q-26 -6 -30 -2t7 22q15 30 51 63q16 15 36 42.5t32 52.5q13 25 34.5 53t40.5 41zM264 424q19 37 2 124l-17 88l-1 -124q-2 -101 6 -101q4 0 10 13zM332 573q-14 36 -27 17q-11 -18 -9 -65l1 -71l22 49q9 21 13 41t0 29zM360 353q-45 30 -55.5 20.5t-10.5 -77.5v-83l41 27
q40 26 75 15q34 -11 32 9q-3 28 -59 72q-11 8 -23 17zM266 129q5 5 7 42.5t-1 85.5q-5 102 -11 93.5t-7 -123.5q-2 -88 9 -98q1 -1 3 0zM493 187q0 21 -9 28.5t-24.5 0t-34.5 -28.5q-24 -25 -41 -30.5t-47 0.5q-40 9 -40 3q0 -4 10 -18q25 -30 76.5 -32.5t79.5 24.5
q12 12 21 27.5t9 25.5z" />
    <glyph glyph-name="C" unicode="C" 
d="M233 603q44 47 64.5 63t36.5 14t39 -24q19 -16 24.5 -47.5t5.5 -116.5q0 -120 -16.5 -174.5t-69.5 -109.5q-20 -20 -31.5 -40.5t-8.5 -27.5q9 -13 68 -35t67 -14q5 5 23 293t26 296q5 5 7 -15q2 -12 2 -31v-56l58 56q35 35 50.5 41t31.5 -8q24 -20 24.5 -82.5
t-24.5 -82.5q-15 -13 -22.5 -9t-16.5 30q-33 87 -82 38q-16 -16 -22.5 -66.5t-10.5 -185.5l-6 -226l46 11q20 5 47 24t46 41q34 41 44 37q2 -1 2 -4q0 -8 -23 -39.5t-55 -65.5q-49 -52 -77.5 -70t-71.5 -24q-60 -7 -116 10.5t-119 64.5q-74 54 -92.5 142.5t21 191.5
t131.5 201zM301 548q-49 48 -94 -8q-45 -54 -52 -155q-7 -96 33 -160q30 -50 47.5 -51t50.5 44q21 30 27.5 65t6.5 114q0 131 -19 151z" />
    <glyph glyph-name="D" unicode="D" 
d="M160 783q25 39 32 39q1 0 7.5 -9.5t16 -27t19.5 -37.5q16 -34 54 -79t83 -84q139 -119 185 -163t60.5 -71t14.5 -70q0 -58 -36.5 -124.5t-100.5 -125.5q-27 -26 -55 -31.5t-108 -2.5q-122 6 -147 -3q-14 -5 -20.5 8t-9.5 48q-4 36 -12.5 52t-25.5 20q-14 3 -21.5 9
t-6.5 11q41 78 43 94.5t-25 39.5q-23 18 -26 29t11 30q23 31 35 90q8 53 28 109q19 53 -2 131q-12 50 -10.5 71t17.5 47zM309 296q-7 109 -16.5 141t-42.5 64l-48 46v-48q0 -63 21 -234.5t28 -171.5q9 0 40 22q21 15 24 44.5t-6 136.5zM458 327q-80 65 -91 70q-14 5 -16 -15
v-55q0 -22 1 -42t3.5 -31t5.5 -11q7 0 51 31q17 15 36 21t32 2q8 -3 7 0q-2 8 -29 30zM558 209q-6 17 -10.5 24t-13.5 4.5t-20.5 -13.5t-32.5 -34q-27 -34 -40.5 -39.5t-36.5 7.5q-23 12 -30 11t-7 -16q0 -21 46.5 -35.5t97.5 -9.5q23 3 39 38.5t8 62.5z" />
    <glyph glyph-name="E" unicode="E" 
d="M382 685q10 24 16 -6q2 -12 4 -33q5 -61 18 -68t42 38q32 48 71.5 70.5t62.5 3.5q23 -20 23 -57t-23 -69q-25 -32 -23.5 -44t31.5 -12q22 0 29.5 -14.5t-1.5 -37t-31 -44.5q-40 -35 -113 -40l-74 -5l5 -124q5 -119 11 -131q14 -12 77.5 9.5t89.5 47.5q42 41 38 23
q-3 -18 -48 -78q-49 -69 -117 -99t-135.5 -21t-131.5 57.5t-106 130.5q-22 37 -19 101.5t20.5 131.5t51.5 132t75 104l48 46l36 -35q22 -22 28.5 -53.5t8.5 -120.5q1 -96 -5.5 -127t-37.5 -73q-19 -22 -33 -44.5t-14 -28.5q0 -12 48 -50t63 -38q6 0 8.5 78t-0.5 187
q-3 110 -1 195.5t8 97.5zM511 561q-11 15 -26.5 13t-33.5 -22.5t-29 -49.5q-19 -50 -10 -55q5 -6 31.5 20t49 57t18.5 37zM243 394q-1 55 -8.5 94.5t-18.5 51.5q-16 15 -24 -3q-7 -14 -19 -65q-12 -56 -11 -84t18 -69q35 -84 52 -48q14 28 11 123z" />
    <glyph glyph-name="F" unicode="F" horiz-adv-x="878" 
d="M595 724q27 30 43 37.5t34.5 -1t53.5 -39.5q45 -43 51.5 -88t-26.5 -83q-15 -16 -23 -18t-19.5 5.5t-40.5 35.5l-55 53v-152v-152h58q24 0 41 -3.5t17 -8.5q0 -14 -58 -78q-58 -66 -57 -95t60 -34l62 -5l-48 -55q-32 -35 -52.5 -44t-60.5 -5l-63 5l43 58q35 47 37 85
t-30 44q-28 5 -43 -42q-8 -20 -26.5 -50.5t-38.5 -53.5q-31 -36 -40 -64.5t-11 -96.5q-1 -91 -37.5 -163.5t-115.5 -144.5q-56 -50 -106 -59.5t-79 25.5q-14 16 -12 31t22 51q36 66 57.5 77t59.5 -19q25 -19 41 -22.5t36 6.5q8 4 12.5 8t8 14.5t5 22.5t1.5 39.5t-1.5 57.5
t-4.5 85q-11 210 -19 244q-9 33 -33 39q-9 2 -41 2h-66l37 51q15 21 35.5 40.5t35.5 25.5q15 8 36.5 34.5t37.5 56.5q16 31 43 65.5t48 54.5q57 50 102 111q44 61 89 112zM587 393q11 77 -7 194q-11 61 -20 56q-13 -14 -12.5 -167.5t14.5 -153.5q7 0 14 20t11 51zM441 289
q5 82 6 140t-3 58q-8 0 -35 -30q-17 -18 -22.5 -62t-5.5 -161q0 -80 4.5 -137t10.5 -57q19 0 27.5 48t17.5 201z" />
    <glyph glyph-name="G" unicode="G" horiz-adv-x="812" 
d="M497 730q6 5 11 -11q4 -11 6 -29l5 -55l58 56q46 45 72.5 42.5t59.5 -53.5q15 -22 11.5 -41t-31.5 -72q-42 -78 -36 -84q1 -1 7.5 -4.5t16.5 -9t19 -9.5q24 -13 30.5 -32.5t6.5 -75.5q0 -55 -10.5 -87t-44.5 -82q-54 -78 -134 -133.5t-141 -55.5q-130 0 -219 67t-104 177
q-7 59 2 94t56 133q29 58 68 117.5t66 85.5l63 62l66 -65q45 -43 56 -68.5t16 -95.5q2 -57 4 -43q3 14 4 101q3 160 16 171zM592 574q-12 13 -25 23t-18 10q-18 0 -25 -41t5 -72l15 -38l39 42q29 31 30 41t-21 35zM309 519q-18 22 -35 38.5t-23 16.5q-20 0 -42.5 -64.5
t-22.5 -121.5q0 -33 17 -80t41 -81t41 -34q7 0 21 13t29 33q23 29 28 53t-1 81q-10 91 -53 146zM612 261q-6 17 -18.5 35t-26.5 26q-24 14 -28.5 9t-4.5 -42t5.5 -67t14 -45.5t18.5 -11.5q23 7 35 36t5 60zM501 233q0 25 -2 46.5t-5 33.5t-7 12q-16 0 -86 -75t-61 -84
q4 -4 30 -10t56 -8l75 -10v95z" />
    <glyph glyph-name="H" unicode="H" horiz-adv-x="829" 
d="M277 751q2 26 6 24q2 -1 4 -7q4 -19 16.5 -19.5t56.5 14.5q39 13 74 14.5t95 -8.5q113 -16 166 -16q51 0 58 -12.5t-27 -42.5q-26 -24 -85.5 -28t-194.5 8l-137 13v-119q0 -115 20 -115q11 -1 30 22q25 30 80.5 24t99.5 -42q94 -77 70 -258l-12 -95l56 -13l58 -13
l-44 -53q-31 -37 -51 -44.5t-77 -5.5q-21 1 -40 3t-30 5t-11 5q0 11 33 53q33 43 33 130v86l-41 -45q-34 -37 -49.5 -40t-46.5 22q-33 23 -55.5 11t-22.5 -54q0 -30 7.5 -39t33.5 -9q38 0 39 -15q0 -17 -50 -81q-33 -41 -46.5 -50t-23.5 5q-9 10 -38 18t-68 10l-88 5l50 58
l50 58l1 228q0 121 6.5 183.5t21 97.5t45.5 61q12 10 20 29t8 37zM276 529q0 124 -7 124q-8 0 -17 -60t-9 -115q0 -30 5 -51.5t11 -21.5q8 0 12.5 35t4.5 89zM468 335q-34 39 -63.5 52t-65.5 5q-18 -4 -24 -21t-6 -61v-74l51 43q38 31 51 34t42 -16q51 -33 47 -13
q-2 14 -32 51zM271 170q6 69 0 132q-3 29 -5 -1q-2 -24 -2 -70q0 -84 4 -79q1 1 3 18z" />
    <glyph glyph-name="I" unicode="I" horiz-adv-x="564" 
d="M290 823q57 28 85 32t74 -8q26 -7 31 -17.5t-2 -44.5q-25 -122 -33 -203.5t-8 -218.5q-1 -148 -8.5 -189.5t-46.5 -113.5q-52 -97 -103 -126t-117 2q-58 27 -78 70.5t4 86.5q26 45 50 50q14 3 16 -14v-5q0 -8 10 -24t23 -29q22 -20 28 -18t15 33q9 39 3.5 156t-16.5 129
q-12 9 -55 12q-39 0 -39 13q0 16 56 60q23 18 40.5 37.5t17.5 26.5q0 12 29.5 55.5t61 79.5t36.5 31q8 -5 -26 -55q-22 -27 -28.5 -50t-9 -84.5t2.5 -171.5q2 -102 -3 -144t-25 -83l-35 -68l41 -10q17 -5 31.5 -5t18.5 5q15 14 25.5 112.5t10.5 222.5q2 116 13.5 212
t30.5 145q13 35 -36 43q-58 10 -126 -21q-34 -16 -54 -36q-10 -12 -21 -21.5t-18 -13.5t-9 -2q-15 15 39 76.5t104 85.5z" />
    <glyph glyph-name="J" unicode="J" horiz-adv-x="680" 
d="M358 851q102 17 166.5 16t71.5 -19q3 -9 -3 -35t-16 -53q-19 -41 -23.5 -116.5t-3.5 -302.5q3 -357 -17 -421q-16 -54 -75.5 -124t-89.5 -70t-90 51t-87 100q-68 118 0 224q32 56 39 56q5 0 5 -58q0 -51 35 -110.5t96 -113.5q41 -36 54.5 -39.5t31.5 14.5q17 16 22.5 86
t7.5 312q1 148 7.5 277.5t12.5 156.5q18 64 18 78q0 5 -26 6.5t-65.5 -1t-82 -6.5t-80.5 -10.5t-56 -13.5q-20 -8 -47 -25.5t-47 -35.5q-43 -41 -32 -16q9 19 50 75q38 50 89 77t135 41zM408 642q19 32 38.5 55t27.5 23q12 0 -8 -32q-4 -6 -9 -13q-37 -53 -44.5 -144.5
t10.5 -289.5q13 -171 11.5 -215t-23.5 -84l-32 -58l-5 66q-2 60 -21 179q-11 69 -20.5 90t-29.5 21q-15 0 -22 2t-7 9t7.5 18.5t23.5 31.5q32 42 30.5 56.5t-38.5 14.5q-39 0 -39.5 14.5t37.5 50.5q16 16 31 40t20 41q8 39 62 124z" />
    <glyph glyph-name="K" unicode="K" horiz-adv-x="779" 
d="M332 723q53 27 96 31t159 -8q101 -11 101 -37q0 -15 -28 -37q-25 -23 -171 -19q-56 3 -112 -1t-75 -10q-29 -11 -37 -26t-8 -59q0 -26 3 -46t7 -20q9 0 60 42q19 17 43 29t38 12q60 0 34 -79q-11 -35 -41 -90l-61 -113h58q66 0 95.5 -23t53.5 -92.5t50.5 -91.5t68.5 -6
q40 14 37 -6q-2 -18 -38 -54q-39 -38 -83.5 -50t-65.5 10q-10 11 -24.5 41t-25.5 62q-25 66 -57 90t-91 18q-33 -3 -43 -11.5t-10 -35.5q0 -22 9 -33t30 -13q36 -5 35 -27.5t-39 -57.5q-27 -24 -44.5 -27t-64.5 9q-38 10 -58.5 10t-34.5 -11q-24 -20 -21.5 -5.5t29.5 54.5
q20 27 29 78t16 182q6 135 15.5 188t34.5 99q41 76 41 116q3 42 10 15q1 -3 2 -8q4 -19 11.5 -19t49.5 22q11 5 17 8zM236 480q6 27 0 58q-6 15 -8 -7q-1 -9 -1 -23q0 -38 5 -35q2 0 4 7zM381 458q-11 19 -43 15.5t-54 -25.5q-27 -26 -27 -109q0 -69 10 -72q4 -1 17 9
q30 26 68 96.5t29 85.5zM241 314q0 78 -7 78q-11 0 -16 -56t6 -73q11 -20 14 5q2 13 3 46z" />
    <glyph glyph-name="L" unicode="L" horiz-adv-x="663" 
d="M236 731q0 25 24 17q10 -5 14.5 -13t0.5 -14q-9 -18 -7.5 -181.5t11.5 -297.5l10 -125l116 -12q113 -11 145 7q34 18 32 2q-3 -19 -51.5 -67t-88.5 -59.5t-92 6.5q-4 1 -10 3q-41 15 -48 12t-8 -35v-6l-2 -47l-12 42q-7 27 -20.5 33.5t-53.5 4.5q-46 -4 -52.5 2t2.5 47
q11 44 13.5 83t-3 61.5t-18.5 19.5q-13 -2 -13 4t16 31q25 39 17 85q-6 28 -15.5 35.5t-32.5 2.5q-29 -5 -30 -0.5t21 36.5q13 17 25 48.5t17 59.5q5 27 20.5 64.5t32.5 62.5q40 65 40 88zM251 274q-4 164 -15 277q-9 84 -10 -10q-1 -50 0 -151q3 -278 15 -278q10 0 10 162z
" />
    <glyph glyph-name="M" unicode="M" horiz-adv-x="978" 
d="M356 861q7 19 13 20t25 -15q49 -48 100 -87t62 -39q14 0 56.5 45t61.5 79q12 21 15 22q2 1 3 -5q1 -4 2 -12q0 -12 5 -21t11 -9q25 0 87 -47t62 -65q0 -25 -28 -57q-16 -18 -23 -68.5t-12 -183.5q-5 -101 -3 -153.5t8 -68t27 -33.5l38 -36l-33 -45q-36 -47 -56.5 -47
t-58.5 49q-28 37 -32 54t9 42q14 24 23 146t7.5 239t-13.5 130q-8 8 -15 11t-10 -1q-7 -7 -25 -154q-18 -149 0 -161q18 -9 -7 -58q-10 -20 -20.5 -73t-15.5 -109q-12 -134 -26 -157q-12 -16 -11 -4q0 7 2 22q10 45 18 154l12 111h-43q-29 0 -36 -9.5t-7 -45.5
q0 -55 -33 -86q-24 -21 -33.5 -21.5t-26.5 16.5q-16 15 -17.5 27.5t9.5 32.5q20 37 18 78t-25 41q-15 0 -20 -30t-5 -122q0 -40 -1 -74.5t-2.5 -53t-2.5 -16.5q-5 5 -15 235t-12 361q0 65 -5.5 90t-20.5 31q-17 7 -20 -11q-5 -22 5 -148q28 -355 -25 -469q-37 -78 -113 -159
t-112 -81q-18 0 -29 6.5t-11 16.5q0 24 28 46t53 17q11 -1 36 15t49 40l58 59v169q0 170 -15 310l-15 141l61 74q61 77 70 105zM649 728q-10 16 -26.5 8.5t-49.5 -43.5q-30 -31 -37.5 -57t-7.5 -100q0 -76 6 -96.5t32 -29.5q15 -6 29 -7t19 4q11 10 27.5 159t7.5 162z
M462 515q0 60 -7.5 90.5t-25.5 53.5l-32 39l-2 -162q0 -134 9 -146q5 -8 25 2q21 11 27 33.5t6 89.5z" />
    <glyph glyph-name="N" unicode="N" horiz-adv-x="845" 
d="M283 750q0 13 13.5 16.5t49.5 -1.5q65 -10 145 -72.5t135 -144t55 -141.5q0 -27 -21 -115t-37 -132q-6 -17 -1.5 -23.5t22.5 -6.5q35 0 77.5 -19.5t42.5 -34.5q0 -17 -37 -57q-27 -30 -62.5 -35.5t-66.5 14.5q-24 14 -61 -10q-32 -20 -34 -16q-3 9 35 110q39 105 52 164
l11 58l-43 -40q-28 -26 -44.5 -30t-52.5 7q-53 16 -100 0q-28 -9 -36.5 -23t-8.5 -55q0 -27 6 -47t16 -24q19 -8 -17 -47q-40 -43 -75 -48q-3 -1 -6 -1q-124 3 -136 13q-10 9 22 39q4 3 8 8q24 21 31.5 71.5t-4.5 93t-37 42.5q-19 0 -5 24q5 8 15 22q33 44 24.5 75t-50.5 23
q-24 -4 -28 0t5 20q15 28 48 54q14 13 24 28t10 25q0 9 17.5 41.5t40.5 66.5q58 85 58 108zM283 377q0 283 -5 283q-17 0 -22.5 -55t-5.5 -228q0 -261 17 -272q7 -4 11 49q5 65 5 223zM451 566q-22 20 -35.5 32t-28 23t-22.5 16t-16.5 5t-13 -3.5t-8.5 -15t-5.5 -24.5
t-3 -37.5t-2 -48t-0.5 -61.5v-191l62 46q37 29 64 37.5t77 5.5q79 -3 79 5q0 27 -47.5 94.5t-99.5 116.5z" />
    <glyph glyph-name="O" unicode="O" horiz-adv-x="746" 
d="M426 676q26 27 54 24t85 -39q62 -40 80.5 -76.5t18.5 -122.5q0 -78 -39 -167t-96 -158t-126 -110t-125 -30q-55 10 -115.5 62.5t-77.5 106.5q-35 103 -2.5 236t116.5 234q32 39 45 44t31 -11q20 -16 23 -51.5t-5 -163.5q-7 -115 -16 -164.5t-30 -80.5
q-25 -40 -25.5 -50.5t22.5 -27.5q34 -25 43 -25q6 0 36 -10q9 -3 14 3t8.5 39.5t5 85.5t2.5 157q3 201 5 201q1 0 3 -98q3 -83 8.5 -139.5t11.5 -56.5q10 0 53 43q24 25 43 32.5t50 2.5q68 -11 78 34t-41 103q-34 39 -85 65q-63 30 -74.5 53.5t21.5 54.5zM227 406
q6 87 3.5 117.5t-18.5 43.5t-23.5 11.5t-17.5 -20.5q-31 -60 -37 -161t18 -160q31 -76 48 -27q16 43 27 196zM590 285q10 34 3 34t-46 -41q-29 -27 -43.5 -31t-37.5 8q-36 18 -57 12q-19 -8 -32 -78.5t2 -85.5q19 -19 64 7.5t88.5 77.5t58.5 97z" />
    <glyph glyph-name="P" unicode="P" horiz-adv-x="762" 
d="M138 645q47 48 92.5 48t59.5 -48q10 -36 13 -298q1 -250 17 -236q16 15 30 302q11 246 19 222q1 -3 2 -12l8 -81l39 51q64 89 119 94t107 -72q28 -40 35 -74.5t7 -124.5q0 -84 -8 -127.5t-34 -95.5q-43 -93 -93.5 -137.5t-119.5 -51.5q-56 -6 -66 -15t-10 -51
q0 -58 -60 -156q-56 -98 -61 -98q-1 0 -1.5 22t0.5 61.5t2 82.5q5 135 -6 152.5t-85 -11.5q-60 -25 -68 -17q-7 6 11 28.5t48.5 46t55.5 33.5q48 21 48 58q0 32 -23.5 55t-43.5 11q-18 -12 -16 -1q2 18 43 60q24 26 30.5 44t-0.5 44q-9 35 -34.5 42t-51.5 -19
q-23 -22 -22 -7q3 25 42 74q2 2 4 5q46 55 40 110q-5 41 -38 43q-15 1 -35 -9q-40 -22 -38 -4q1 18 42 57zM548 559q-33 36 -72 34.5t-70 -41.5q-22 -27 -28.5 -61.5t-6.5 -123.5v-143l47 45q32 31 51.5 36.5t65.5 -1.5q64 -10 83 9t8 83q-10 54 -27 89.5t-51 73.5zM596 158
q32 75 12 75q-11 0 -38 -21t-44 -23t-52 10q-55 19 -79 7t-24 -58v-50h101q75 0 90.5 7.5t33.5 52.5zM338 -66q0 27 -4.5 46t-12.5 19q-6 0 -11 -23t-5 -53q2 -69 16 -65q8 4 12.5 26t4.5 50z" />
    <glyph glyph-name="Q" unicode="Q" horiz-adv-x="862" 
d="M476 685q35 42 96.5 8t105.5 -121q81 -156 -28 -354l-58 -106l35 -68q14 -27 35.5 -58.5t37.5 -47.5q25 -25 40 -29.5t41 6.5q44 16 41 -1q-3 -15 -46 -56q-56 -53 -101.5 -39.5t-106.5 104.5q-30 43 -56.5 70t-36.5 24q-24 -6 -108 -15q-111 -11 -183 50.5t-72 168.5
q0 64 62 212t115 209q35 39 48 45t30 -11q15 -15 21 -62.5t7 -165.5l2 -205l-61 -63q-50 -51 -41.5 -67t84.5 -16h48v303q2 266 15 280q7 -13 14 -12t20 17zM549 569q-65 61 -94 30q-12 -9 -12 -169v-158l58 57q39 37 55 43t45 -7q27 -12 34 -9.5t7 24.5q0 40 -28.5 97.5
t-64.5 91.5zM327 378q-2 160 -23 188q-15 19 -26 8q-13 -13 -48 -90q-45 -95 -49 -161t30 -122q29 -48 46.5 -51.5t43.5 33.5q15 21 20.5 64t5.5 131zM611 214q40 80 20 74q-8 -2 -27 -21q-18 -17 -31 -18.5t-40 12.5q-90 39 -90 -83q0 -41 6.5 -53t28.5 -12q42 0 73.5 24
t59.5 77z" />
    <glyph glyph-name="R" unicode="R" horiz-adv-x="729" 
d="M295 681q37 37 67 64t34 27q20 0 71.5 -37t59.5 -57q9 -23 -29 -91.5t-84 -110.5q-26 -25 -34.5 -38.5t-3.5 -21t27 -13.5q12 -3 45.5 -48.5t71.5 -110.5q36 -62 68.5 -106.5t41.5 -44.5q35 0 10 -36q-10 -14 -29 -35q-23 -24 -39 -34.5t-31.5 -10.5t-31 17t-32 44.5
t-38.5 76.5q-26 55 -53 102t-38 57q-19 16 -23 6q-5 -12 -2 -99q3 -60 -1.5 -95t-20 -56t-42 -27.5t-72.5 -3.5q-21 1 -40 3t-30 5t-11 5q0 10 42 48q24 24 32.5 47.5t8.5 70.5q0 55 -7 67.5t-38 16.5l-46 5l46 45q49 46 43.5 83.5t-59.5 37.5q-33 0 -39.5 4.5t2.5 23.5
q6 12 25.5 28.5t39.5 26.5q21 11 35.5 25t14.5 24t26 44t63 72zM434 587q-20 23 -66 46l-47 25v-121l2 -121l65 75q38 43 47.5 62t-1.5 34zM283 429q6 45 0 92q-3 23 -5 -3q-1 -16 -1 -44q0 -59 4 -56q1 1 2 11zM283 156q6 54 0 100q-3 23 -5 -5q-1 -18 -1 -50q0 -61 4 -59
q1 1 2 14z" />
    <glyph glyph-name="S" unicode="S" horiz-adv-x="729" 
d="M269 789q94 12 251 -28q83 -21 112 -5t26 2q-4 -20 -67 -80q-29 -28 -44.5 -44.5t-27 -33t-13.5 -25t3 -19t15 -18t29 -19.5q40 -25 48 -40t1 -56q-7 -37 -14 -143q-3 -46 -16 -81.5t-42 -80.5q-60 -86 -101 -107.5t-125 -11.5q-56 7 -87.5 3t-72.5 -27q-54 -29 -56 -18
q0 1 1 4q13 23 126 192l114 169l-78 46q-80 46 -129 89l-51 44l30 59q28 63 28 98q0 38 46.5 82t93.5 49zM457 668q-71 19 -121 26l-67 10l42 -33q49 -39 94 -61q33 -19 47.5 -20.5t30.5 12.5q29 24 23.5 37.5t-49.5 28.5zM382 484l-1 1h-1l-1 1h-1l-1 1l-1 1h-1l-1 1l-1 1
h-1l-1 1h-1l-1 1l-1 1h-1l-1 1h-1l-1 1l-1 1l-2 1q-166 100 -177 102q-6 0 -6 -9v-2q0 -11 168 -122t185 -111q52 0 -93 94q-25 16 -56 35zM430 250q-73 55 -83 55q-5 -1 -39.5 -51t-65.5 -101t-27 -53q5 -3 146 6q101 7 120.5 13.5t19.5 34.5q0 42 -71 96z" />
    <glyph glyph-name="T" unicode="T" horiz-adv-x="762" 
d="M261 789q52 12 126 3q83 -10 185 -10q113 -2 113 -21q0 -20 -37 -44t-82 -36l-47 -11v-267v-267l50 57l51 58l-25 -50q-18 -42 -96 -129q-68 -72 -119 -78t-116 49q-58 51 -83.5 112t-25.5 149q0 60 12.5 105.5t53.5 129.5q66 135 66 144q0 5 -11.5 6.5t-30.5 0t-40 -4.5
t-41 -8.5t-32 -11.5q-54 -28 -55 -21q-1 5 12 27q17 34 71 71t101 47zM378 446q-4 59 -9 113.5t-10 86t-7 34.5q-20 20 -60 -56q-51 -97 -67 -204q-4 -26 -4 -47q0 -63 26.5 -131t63.5 -97q16 -14 25.5 -9t28.5 37q21 35 23.5 77t-10.5 196zM470 545q0 128 -19 128
q-7 0 -7 -58t5.5 -119t13.5 -70q7 -7 7 119zM470 176q0 83 -9 83q-6 0 -48.5 -71.5t-42.5 -82.5q0 -5 15 -8.5t35 -3.5q14 0 20.5 0.5t13.5 3.5t9 6.5t4 15t2.5 23t0.5 34.5z" />
    <glyph glyph-name="U" unicode="U" horiz-adv-x="1094" 
d="M272 781q60 16 85 15.5t33 -20.5q3 -10 20.5 -20t38.5 -15q35 -7 43.5 -22.5t16.5 -81.5q12 -109 17 -114q2 -3 3 13q2 22 3 93q0 53 6 97.5t12 47.5q8 4 12.5 -3.5t4.5 -24.5q0 -60 18 -322t23 -267t57 19q12 7 19 11t14.5 13.5t11.5 17t8.5 27t7 36t5.5 51.5t5 67t5 89
q8 150 -1 165q-5 7 -17 2q-17 -6 -19 -2t9 24q21 36 59 71q27 25 47.5 30t68.5 -2q76 -12 76 -23q0 -21 -32.5 -57t-59.5 -46q-30 -11 -35 -42t-5 -198v-225l91 10q66 9 78.5 5.5t12.5 -32.5q-1 -16 -12 -41t-26 -43q-24 -28 -50 -37t-94 -13q-48 -4 -72.5 -1.5t-31 9
t-9.5 24.5q-3 22 -13 23q-13 0 -104 -48q-81 -44 -106 -49.5t-75 9.5q-78 24 -135.5 85.5t-84 143t-22 181t44.5 195.5q19 42 18.5 51.5t-20.5 9.5q-11 0 -36 -10t-48 -25q-23 -14 -42 -21t-23 -2q-8 8 30.5 47t90.5 78t78 47zM350 609q-47 25 -55 25q-1 0 -4.5 -12
t-7.5 -33t-6 -45q-10 -77 12.5 -167.5t63.5 -138.5q44 -53 57 3q8 34 8 111q0 131 -14 184t-54 73zM550 261q0 108 -6.5 108t-58 -85.5t-51.5 -97.5t26.5 -22.5t58.5 -10.5q21 0 26 18.5t5 89.5z" />
    <glyph glyph-name="V" unicode="V" horiz-adv-x="895" 
d="M183 724q48 30 87 29.5t110 -32.5q20 -9 29 -12.5t22 -12t16.5 -11t11 -15t9.5 -18.5t6.5 -25.5t6.5 -33t6 -44.5l15 -100l2 95q3 141 22 145q18 2 26 -102q3 -46 3 -103v-166l47 45q46 45 78 35q18 -8 22 -3t-3 31q-11 38 -11 78q0 39 -50 66q-44 25 -46.5 46.5
t35.5 66.5q23 27 40 33t51 -2q38 -7 56.5 -28.5t27.5 -69.5t13 -148q3 -56 4 -82.5t-3 -61t-8.5 -50t-22 -48t-34.5 -56t-53 -72.5q-53 -73 -74.5 -88.5t-66.5 -15.5q-76 0 -193.5 64t-164.5 131q-32 48 -40.5 78t-7.5 96q3 107 23 176q19 73 9 81q-4 4 -21.5 1.5
t-36.5 -9.5q-14 -5 -25.5 -8.5t-17.5 -4t-7 0.5q0 19 37.5 62.5t70.5 61.5zM345 532q-26 27 -55 41t-39 6q-4 -4 -7 -27.5t-3 -50.5q1 -82 54 -178q40 -70 68 -73q13 -1 20 15q13 34 -2 140.5t-36 126.5zM506 284q0 107 -5 107q-6 0 -45 -84q-14 -29 -19 -41.5l-10 -25
t-1.5 -18t7.5 -10.5t15 -13q20 -15 30.5 -19t17 5.5t8.5 31t2 67.5zM718 239q8 100 -20 89q-13 -4 -33 -31q-31 -42 -70 -33q-27 5 -33.5 -4t-6.5 -51q0 -44 9 -55t51 -19q57 -10 76 8.5t27 95.5z" />
    <glyph glyph-name="W" unicode="W" horiz-adv-x="1458" 
d="M184 759q81 34 222 -15q86 -30 94 -38q2 -2 6.5 -24.5t10 -62t10.5 -81.5l18 -162l-58 -88l-58 -87l65 -37q59 -32 66 -23q1 6 -2 308q-2 293 15 293q18 0 18 -119q0 -128 12 -308l10 -187l43 5q31 3 38.5 24t14.5 130q12 154 38 248q30 113 -3 121q-15 4 -45 -10
q-34 -16 -35 -10q0 4 9 20q25 46 68 82.5t72 36.5q18 0 52.5 -10.5t65.5 -25.5l75 -37v-205q0 -43 -0.5 -62t-0.5 -47t-1.5 -39t-2 -27t-4.5 -24t-6.5 -17t-9.5 -18t-11.5 -15.5t-15.5 -20.5l-51 -65l40 -14q5 -2 14 -6q77 -28 89 -23.5t6 59.5q-1 7 -2 11q-12 88 -19 226
t-5.5 241t9.5 103q9 0 14.5 -15t5.5 -37v-51l58 51q61 52 65 52q5 0 56 -18q38 -13 42 -22t-14 -41q-19 -41 -49 -68q-11 -9 -15.5 -21t-4.5 -55.5t5 -106t16 -195.5l10 -103l81 10q55 8 68.5 4.5t13.5 -24.5q-3 -32 -35 -73q-20 -23 -47.5 -33.5t-85.5 -15.5
q-63 -7 -80 -3.5t-17 23.5q0 33 -21.5 38t-50.5 -22q-15 -14 -36.5 -26.5t-36.5 -16.5q-31 -10 -102.5 18t-99.5 60q-16 20 -26.5 23.5t-27 -5t-55.5 -40.5q-56 -43 -115 -47.5t-133 29.5q-63 29 -102.5 72.5t-86.5 134.5q-42 79 -51 171.5t18 170.5q17 48 -0.5 65t-74.5 6
l-50 -10l38 53q16 22 38 41.5t37 26.5zM418 421l-12 141l-65 31l-64 33l-4 -44q-3 -91 17 -154t84 -158l18 -24t11.5 -10.5t8.5 1t7 13.5q4 11 3.5 62.5t-4.5 108.5zM1100 336q1 79 -2.5 150.5t-9.5 90.5q-6 20 -9 -10q-10 -85 6 -273q1 -21 3 -40q7 -69 9 -69q3 1 3 151z
M880 567q-29 30 -43 23t-24 -55q-13 -72 -2 -174t36 -141q35 -54 48 -10q11 38 11 171q0 92 -5.5 131.5t-20.5 54.5z" />
    <glyph glyph-name="X" unicode="X" horiz-adv-x="878" 
d="M181 813q51 32 87 28.5t107 -46.5q66 -42 94.5 -47t49.5 20q16 20 50.5 29.5t67 6.5t57.5 -17t25 -35q0 -12 -9.5 -33.5t-23.5 -39.5q-24 -34 -35.5 -37.5t-44.5 14.5q-67 34 -85 20t-14 -100l5 -104l113 -5q45 -3 78 -8t33 -10q0 -15 -35 -58q-21 -27 -42 -35t-66 -8
q-50 0 -61.5 -6.5t-11.5 -33.5q0 -35 45 -75t101 -59t85 0q21 13 20 -4q-4 -31 -52 -89q-6 -8 -13 -15q-54 -55 -92 -62.5t-107 24.5q-42 20 -53 19.5t-23 -21.5q-104 -173 -197 -273.5t-148 -100.5q-44 0 -44 22q0 23 49 82q32 40 47.5 47.5t37.5 -4.5q35 -18 77 24t95 149
q40 79 48.5 115.5t4.5 124.5l-5 127l-103 5q-44 3 -74 8.5t-30 11.5q0 12 43 65q23 29 45 40t55 11q32 0 44 6.5t12 23.5q0 40 -44 86t-105.5 74t-107.5 20q-25 -4 -41 -4.5t-17 3.5q0 18 37 61t71 63z" />
    <glyph glyph-name="Y" unicode="Y" horiz-adv-x="1210" 
d="M127 822q26 28 38.5 35.5t28 7t53.5 -12.5q63 -18 96.5 -56t67.5 -129q63 -170 1 -346q-33 -97 -33 -111q0 -9 24 -12.5t50.5 0.5t31.5 13q9 12 -6 308q-16 324 2 323q6 0 16 -33q5 -18 9 -74t4 -116q3 -150 12 -184q5 -20 12 -20q10 1 62 51q50 50 86 57t100 -20
q18 -8 23 3t5 60q0 51 -11 72t-55 59l-65 56l41 61q16 25 32 43t21 18q28 0 82.5 -49t61.5 -80q10 -48 -9 -162.5t-47 -170.5q-30 -56 -123.5 -164t-143.5 -142l-49 -35l3 -166l5 -165h93q88 0 136.5 31.5t86.5 114.5q16 35 39.5 75t40.5 60l41 50l75 -40q50 -26 63 -42
t13 -50q0 -23 -10 -51t-25 -46l-33 -44l-68 44q-7 6 -20 15q-36 25 -50 17t-65 -81q-17 -25 -27 -40q-21 -30 -55 -62.5t-61 -50.5q-45 -28 -83.5 -34.5t-161.5 -6.5q-119 0 -159 6.5t-76 29.5q-72 50 -98.5 99.5t-26.5 136.5q0 74 11 103t66 99q81 108 106 154
q31 60 21.5 155t-56.5 188q-29 59 -52 84.5t-66 46.5q-29 13 -50 28t-21 23t13.5 28.5t32.5 40.5zM793 403q0 23 -5 23q-6 0 -48 -41q-31 -31 -42 -33.5t-39 17.5q-36 24 -57.5 24t-46.5 -24q-17 -17 -24 -55t-1 -69.5t23 -31.5q38 0 96 34t101 80t43 76zM510 -130v6
q-1 35 -1 50t-2 38.5t-2.5 31.5t-6.5 21.5t-8 16.5t-13 8.5t-17.5 5.5h-24.5t-29.5 -2t-37.5 -5l-121 -15v-52q0 -45 39 -98.5t96 -90t105 -36.5q15 0 19.5 24t3.5 97z" />
    <glyph glyph-name="Z" unicode="Z" horiz-adv-x="862" 
d="M226 744q58 30 101 35.5t192 2.5q88 -1 151 -6.5t63 -11.5t-35.5 -46t-82.5 -89q-50 -52 -80.5 -91.5t-25.5 -47.5q38 -63 132 73q62 92 78 101q12 8 -4 -27q-21 -43 -64 -107q-34 -51 -30.5 -63t54.5 -12q54 0 54.5 -19.5t-53.5 -72.5q-32 -33 -56.5 -45t-59.5 -12
q-37 0 -54.5 -11t-42.5 -50l-40 -63l76 -21q106 -31 143 -32t82 27q55 31 55 18q0 -11 -40 -70q-32 -47 -101 -88t-114 -41q-14 1 -43 11t-55 22q-44 21 -61 22t-43 -15q-46 -30 -45 -11q0 21 65 120q67 102 91 150.5t13 60.5q-10 9 -30.5 -7.5t-45 -53t-45.5 -82.5
t-50.5 -94.5t-53 -77.5t-28.5 -23q-10 8 18.5 75t75.5 145q27 42 46 78.5t19 44.5q0 26 -52 10q-23 -6 -49 -20l-50 -25l25 48q26 51 79.5 93.5t90.5 42.5q26 0 69 33.5t69 71.5t10 47q-11 5 -61 10t-108 7q-92 2 -135 -4t-92 -28q-67 -32 -67 -22q-1 4 6 14q25 44 53 69
t86 57z" />
    <glyph glyph-name="bracketleft" unicode="[" horiz-adv-x="332" 
d="M211 610q31 13 37 7t-4 -38q-4 -14 -20.5 -26t-37.5 -17l-50 -12v-179q0 -66 1 -107t4 -75t7 -51.5t12 -29.5t18 -15.5t26 -3.5q39 0 44 -5.5t-6 -33.5q-9 -27 -81 -27h-69l-10 245l-10 244l53 56q57 58 86 68z" />
    <glyph glyph-name="backslash" unicode="\" horiz-adv-x="795" 
d="M87 648q9 10 20.5 17t18.5 6q8 0 59.5 -56t116.5 -135q167 -202 286 -324q130 -135 115 -149q-16 -16 -153 147q-182 218 -302.5 343.5t-147.5 125.5q-21 0 -23.5 4.5t10.5 20.5z" />
    <glyph glyph-name="bracketright" unicode="]" horiz-adv-x="299" 
d="M111 594q13 13 33.5 23t36.5 10h38v-295q0 -295 -20 -315q-8 -8 -31 -14t-47 -6q-41 0 -44.5 4.5t18.5 28.5q12 14 30.5 23.5t32.5 9.5q24 0 27 22.5t-6 130.5q-10 166 -10 248v40t-2 26t-4 17.5t-8 8.5t-12 4h-18q-32 0 -34 4.5t20 29.5z" />
    <glyph glyph-name="underscore" unicode="_" horiz-adv-x="729" 
d="M101 275q27 20 76.5 24.5t218.5 3.5l254 -2v-39q0 -27 -9.5 -31.5t-52.5 3.5q-69 9 -294 9q-195 0 -209 9q-6 6 16 23z" />
    <glyph glyph-name="a" unicode="a" horiz-adv-x="514" 
d="M160 427q20 28 38.5 48t23.5 20q11 0 74 -51q41 -34 51.5 -55t10.5 -74q0 -79 41 -159l40 -82l-37 -39l-36 -39l-35 40l-33 40l-55 -46q-41 -34 -55.5 -36.5t-55.5 17.5q-39 19 -47.5 34.5t-8.5 70.5q0 93 22.5 174.5t61.5 136.5zM268 119q9 25 3 73q-3 35 -10.5 37.5
t-47.5 -16.5q-34 -16 -45 -28.5t-1.5 -26.5t42.5 -32q31 -20 42 -21t17 14z" />
    <glyph glyph-name="b" unicode="b" horiz-adv-x="497" 
d="M95 760q27 30 45.5 31.5t47.5 -24.5q21 -19 21.5 -31t-16.5 -45q-25 -47 -34.5 -130.5t0.5 -154.5l12 -76l48 33q47 33 81.5 31t74.5 -41q24 -25 33.5 -49.5t9.5 -59.5q0 -41 -15.5 -69t-69.5 -87q-36 -37 -67.5 -63.5t-40 -26.5t-32.5 15.5t-48 36.5l-60 53l2 283
q3 285 -9 313q-13 29 17 61zM275 262q-45 35 -54 33q-33 -4 -45.5 -26t-0.5 -52.5t46 -59.5q42 -35 66.5 -40t44.5 19q17 21 0.5 57t-57.5 69z" />
    <glyph glyph-name="c" unicode="c" horiz-adv-x="415" 
d="M130 386q21 31 40.5 52t27.5 21q18 0 81 -33q58 -30 63.5 -60.5t-38.5 -72.5q-39 -34 -42 -21q0 7 -17 22t-41 31l-58 33v-37q0 -70 16.5 -118t45.5 -67q28 -19 39 -18.5t33 19.5q27 23 32 15q0 -13 -54 -84.5t-65 -72.5q-9 0 -62 43q-26 21 -35 36.5t-12.5 39.5t-3.5 83
q0 75 8.5 107.5t41.5 81.5z" />
    <glyph glyph-name="d" unicode="d" horiz-adv-x="481" 
d="M121 682q41 59 58 62q15 3 -8 -40q-18 -36 -18 -41q0 -4 124 -171q85 -112 104.5 -150.5t19.5 -91.5q0 -52 -13.5 -79.5t-70.5 -89.5l-83 -91l-66 43q-33 22 -45 35t-16 31.5t-4 62.5q0 51 10 83.5t38 74.5l48 71l-64 83q-27 34 -46 66t-19 43q0 13 15 42t36 57zM310 235
q-50 88 -74 110q-20 17 -26.5 17t-13.5 -17q-10 -30 -10 -100q0 -48 10 -66t50 -43q40 -24 53 -25.5t31 15.5q18 16 14.5 34t-34.5 75z" />
    <glyph glyph-name="e" unicode="e" horiz-adv-x="365" 
d="M150 356q39 51 58 58.5t56 -11.5q41 -23 29.5 -66t-72.5 -95l-76 -65l34 -31q23 -20 35 -22t33 10q29 19 30 11q0 -10 -40 -72q-15 -24 -23.5 -37t-18.5 -23t-16 -12t-16 2t-18.5 12t-23.5 23q-32 34 -37 56t3 95q7 60 20.5 95.5t42.5 71.5zM186 288q-12 20 -19 8
q-4 -7 -9 -28q-5 -20 -2.5 -22.5t17.5 9.5q9 8 13 17.5t0 15.5z" />
    <glyph glyph-name="f" unicode="f" horiz-adv-x="431" 
d="M168 704q42 45 63 49.5t71 -21.5q43 -22 49 -60t-29 -71q-22 -19 -34 -17.5t-42 26.5q-19 14 -34.5 22t-18.5 6t-2.5 -34.5t5.5 -68.5q4 -36 6.5 -52t9.5 -27t15 -12.5t27 -1.5q20 0 34 -5.5t14 -14.5q0 -20 -29 -49.5t-49 -29.5q-37 0 -12 -154q7 -34 16 -47.5t26 -13.5
q29 0 29 -13q1 -17 -56 -70l-58 -57l-41 40q-29 30 -31.5 45.5t14.5 63.5q13 39 15 88t-7.5 83.5t-25.5 34.5q-14 0 -19 10t0.5 26.5t20.5 36.5q25 36 25 134q0 65 8 91.5t40 62.5z" />
    <glyph glyph-name="g" unicode="g" horiz-adv-x="464" 
d="M183 386q58 22 127 3q16 -3 22.5 -14.5t8.5 -38t2 -89.5q0 -135 22 -143q16 -5 19.5 -24.5t-5 -48t-25 -60.5t-42 -64.5t-53.5 -57.5q-17 -13 -55 -32.5t-69.5 -31.5t-31.5 -5q0 10 58 107q58 101 58 108t-65 7q-47 0 -56 9.5t-18 66.5q-10 86 -10 129q0 42 38.5 103
t74.5 76zM264 200l3 83h-61h-61l5 -83q1 -23 2 -34t4.5 -22.5t6 -15t10 -7t14 -3.5h20.5h22.5t14.5 3.5t10 7t5 15t3.5 22.5t1.5 34zM295 -33q-14 21 -29 16.5t-30 -31.5q-10 -19 -9.5 -26t12.5 -7q27 0 46 16.5t10 31.5z" />
    <glyph glyph-name="h" unicode="h" horiz-adv-x="514" 
d="M58 697q20 32 39 37.5t47 -12.5q14 -9 20 -52.5t8 -147.5q6 -187 15 -196q9 -8 47 27q38 36 66.5 34.5t59.5 -41.5q21 -27 27.5 -60.5t6.5 -110.5q0 -136 -37 -185q-29 -38 -59 14q-1 3 -3 6q-20 34 0 79q17 46 8 88q-10 40 -43 77t-49 27q-17 -11 -15 -82t20 -88
q11 -11 8 -25t-22 -40q-31 -42 -49.5 -48t-47.5 17q-21 14 -24 27.5t7 43.5q9 22 8 107.5t-7 180.5t-16.5 175t-20.5 90q-12 11 -10.5 23.5t16.5 34.5z" />
    <glyph glyph-name="i" unicode="i" horiz-adv-x="332" 
d="M140 523q14 16 26 25t15.5 5t-13 -24.5t-43.5 -46.5q-43 -42 -41 -32q1 12 56 73zM132 417q21 28 51 12q20 -10 23.5 -37t-2.5 -121q-6 -89 -2.5 -116t21.5 -34q27 -10 24 -27t-41 -63l-45 -51l-38 36q-23 23 -27 36.5t6 33.5q7 14 10.5 63t0.5 106q-4 137 19 162z" />
    <glyph glyph-name="j" unicode="j" horiz-adv-x="348" 
d="M149 445q15 21 30 35.5t22 14.5q12 0 -11 -35q-5 -7 -11 -15q-15 -20 -30 -35t-21 -15q-10 0 10 33q5 9 11 17zM158 356q9 15 21 27t17 12q21 0 32 -20.5t16 -71t5 -146.5q0 -140 -7.5 -186t-42.5 -119q-22 -47 -53 -93t-56 -71t-33 -16q-4 3 8.5 26.5t34.5 54.5
q60 85 75.5 149.5t5.5 191.5q-5 60 -14.5 115t-17.5 70q-11 22 -9 37t18 40z" />
    <glyph glyph-name="k" unicode="k" horiz-adv-x="580" 
d="M138 694q16 25 27 29t33 -8q18 -10 23.5 -21.5t-0.5 -31.5q-13 -50 -20 -111l-8 -74l56 54q93 88 152 29q22 -23 13.5 -52t-54.5 -89q-24 -33 -30 -44.5t-3.5 -22t18.5 -29.5q28 -33 66 -133q15 -38 35.5 -73.5t34.5 -47.5q62 -49 -28 -107q-25 -16 -41.5 -18.5t-32.5 12
t-30.5 45t-34.5 87.5q-18 48 -39 89.5t-33 49.5q-26 16 -34.5 8t-18.5 -58q-11 -51 15 -78q17 -17 15 -28.5t-28 -42.5q-26 -30 -39 -33.5t-37 10.5q-21 11 -27 22.5t-1 31.5q12 44 26.5 290t6.5 272q-4 12 1.5 33.5t16.5 39.5zM322 478q-34 24 -47.5 21t-43.5 -40
q-16 -21 -26 -50.5t-9.5 -51t13.5 -21.5q13 3 78 60q47 42 52 53.5t-17 28.5z" />
    <glyph glyph-name="l" unicode="l" horiz-adv-x="348" 
d="M88 715q11 16 24 27.5t21 11.5q19 0 30 -9.5t18 -40.5t9.5 -80t2.5 -137q0 -205 9.5 -292t33.5 -87q31 0 19 -32q-9 -23 -38 -51q-27 -27 -39 -29t-37 15q-27 18 -31.5 58t-3.5 247q3 160 -1.5 228.5t-17.5 91.5q-15 27 -15 41t16 38z" />
    <glyph glyph-name="m" unicode="m" 
d="M428 486q31 31 131 -16q49 -24 53.5 -36.5t-27.5 -41.5q-21 -19 -25.5 -78.5t8 -119.5t35.5 -80q24 -21 24 -30.5t-22 -39.5q-31 -42 -52.5 -48t-53.5 20q-25 20 -28 33t10 48q16 47 2 151.5t-40 131.5q-21 22 -48 12.5t-27 -38.5q0 -35 23 -154q18 -92 13 -129.5
t-41 -66.5q-10 -9 -22.5 -8t-22.5 10t-18 22.5t-9 29.5t4 31q16 32 0 136q-16 86 -30 113.5t-41 27.5q-16 0 -19.5 -22t1.5 -98q9 -124 20 -145q4 -12 -4.5 -33t-25.5 -42q-49 -59 -67 -22q-16 33 -18 168q0 151 -24 189q-17 24 -16 35t21 31q21 21 64.5 29t173.5 14
q87 3 98 16z" />
    <glyph glyph-name="n" unicode="n" horiz-adv-x="497" 
d="M232 489q29 22 43 21.5t60 -26.5q34 -21 45.5 -34.5t5.5 -27.5q-12 -25 -12 -118.5t12 -164.5q8 -46 4.5 -68t-20.5 -43q-46 -56 -64 -3q-14 42 -16 164q-1 111 -7.5 145.5t-30.5 59.5q-24 24 -34.5 26t-26.5 -14q-15 -15 -16 -42t9 -97q6 -48 18.5 -90.5t23.5 -54.5
q18 -20 16.5 -32t-26.5 -47q-27 -41 -53 -49t-40 17q-14 19 -17 168q-4 147 -29 185q-19 29 -19 42t19 41q1 3 5 8q18 28 26 31t37 -9q5 -2 8 -3q23 -9 39.5 -5.5t39.5 20.5z" />
    <glyph glyph-name="o" unicode="o" horiz-adv-x="448" 
d="M229 497q14 11 39.5 17t46.5 4l50 -5l5 -145q4 -104 -3 -136.5t-42 -89.5q-52 -80 -91 -116l-41 -38l-55 32q-16 9 -23 13.5t-15 14.5t-10.5 16.5t-5.5 25.5t-3.5 36.5t-2.5 53.5q-3 94 4.5 122.5t50.5 88.5q24 32 53 63.5t43 42.5zM262 368q-4 8 -18 14.5t-30 6.5
q-13 0 -19 -1.5t-11 -5.5t-6.5 -17t-2.5 -27.5t-1 -46.5t1 -47t3 -28.5t8.5 -19.5t14.5 -10t25 -11q54 -18 61 -18q3 7 0 47.5t-11 94t-14 69.5z" />
    <glyph glyph-name="p" unicode="p" horiz-adv-x="530" 
d="M168 401q18 28 30 31.5t39 -9.5q24 -10 39.5 -9.5t33.5 11.5q22 13 36.5 10.5t44.5 -24.5q17 -12 24 -19.5t14 -16.5t8.5 -27.5t2.5 -38.5t1 -63q0 -87 -7 -117t-36 -64q-43 -51 -83 -51q-28 0 -34 -15.5t-6 -92.5q0 -45 6 -86t14 -53q15 -23 12.5 -45t-18 -34.5
t-39 -16.5t-51.5 10q-26 11 -30 20.5t7 29.5q14 27 16 88.5t-9 131.5q-8 43 -17.5 50t-49.5 1q-53 -8 -54 9q0 18 56 67q36 31 47 53t11 62q0 64 -18 116q-10 29 -8 47.5t18 44.5zM366 201q0 40 -9.5 57.5t-43.5 38.5l-53 33l-10 -40q-11 -36 -4 -96q3 -39 12.5 -47.5
t49.5 -8.5q43 0 50.5 8.5t7.5 54.5z" />
    <glyph glyph-name="q" unicode="q" horiz-adv-x="497" 
d="M108 334q41 55 60.5 66.5t70.5 11.5h71l10 -103q8 -96 35 -290t35 -222q3 -11 -11.5 -36.5t-40.5 -54.5q-52 -56 -52 -39q0 3 1 8q6 34 -15 190q-19 143 -23 199q-1 29 -6 30q-6 0 -44 -45l-50 -58l-49 48q-33 31 -41.5 54.5t-8.5 76.5q0 51 11 82t47 82zM217 296
q-28 0 -58 10q-22 8 -26 -2q-4 -11 0 -74q1 -31 16 -61.5t34 -45t31 -1.5q6 8 13.5 36t11.5 60q8 52 4.5 65t-26.5 13z" />
    <glyph glyph-name="r" unicode="r" horiz-adv-x="464" 
d="M246 430q29 23 70 19t59 -31q10 -16 5 -31.5t-28 -39.5q-26 -28 -37 -30.5t-30 13.5q-27 25 -53 24.5t-36 -26.5q-16 -40 -10.5 -123.5t25.5 -91.5q16 -6 16 -15.5t-16 -40.5q-25 -49 -43.5 -56.5t-54.5 16.5q-30 19 -32.5 29t14.5 44q23 46 23 119.5t-23 107.5
q-17 25 -15 37.5t28 43.5q25 28 38.5 33t34.5 -6q19 -12 33 -10.5t32 15.5z" />
    <glyph glyph-name="s" unicode="s" horiz-adv-x="481" 
d="M172 482l51 44l80 -28q70 -24 84 -31q2 -1 -7 -17t-24 -38q-15 -21 -24.5 -38t-7.5 -18q8 -8 45 -25q22 -13 29 -31t7 -65q0 -65 -30.5 -123.5t-83.5 -95.5q-29 -22 -43 -23.5t-35 13.5q-14 9 -39.5 17.5t-46.5 10.5l-53 5l56 85l57 83l-57 38q-23 16 -39.5 34.5
t-16.5 28.5q0 36 30 89.5t68 84.5zM273 344q0 5 -12.5 14.5t-29.5 17.5l-43 20l30 -40q31 -40 48 -30q7 4 7 18zM293 202q-30 27 -46.5 26t-35.5 -30q-13 -21 -11 -28.5t23 -12.5q9 -2 33 -9.5t33 -10.5q32 -8 34 14q2 23 -30 51z" />
    <glyph glyph-name="t" unicode="t" horiz-adv-x="464" 
d="M239 664q51 68 68 70q12 1 -10 -40q-8 -15 -13 -49t-5 -69v-34.5t2 -23.5t4 -15.5t9 -7t13.5 -3.5h20.5q22 0 39 -6.5t21 -16.5q11 -30 -13.5 -63t-64.5 -42q-13 -2 -19.5 -3.5t-13 -7t-8.5 -10.5t-4 -20t-2.5 -29t-0.5 -44q0 -60 6 -85t22 -34q19 -11 16 -23t-34 -53
q-40 -52 -65.5 -57t-51.5 35q-14 23 -16.5 41.5t6.5 46.5q14 45 23 142q1 28 2 39.5t-0.5 25.5t-3.5 18t-8.5 10.5t-13 8.5t-21.5 6l-51 15l54 55q53 53 53 99q0 45 60 124z" />
    <glyph glyph-name="u" unicode="u" horiz-adv-x="613" 
d="M364 452q17 27 27.5 34.5t22.5 1.5t36 -31q22 -26 24 -39t-13 -41q-21 -37 -25 -79q0 -40 29 -88.5t49 -40.5q31 12 16 -19q-9 -19 -36 -54q-47 -63 -70 -70.5t-49 32.5q-9 16 -35 54q-1 3 -9.5 -3.5t-22 -20.5t-27.5 -32l-55 -63l-60 53q-20 18 -29 27.5t-17.5 20.5
t-10.5 28.5t-3 35t-1 55.5q0 49 -5.5 91.5t-14.5 54.5q-11 19 -8 33t22 40q10 15 16 22.5t13.5 13t11.5 6t13.5 -3.5t17.5 -9.5t24 -18.5q26 -20 31 -33t-5 -32q-7 -12 -11.5 -40t-3.5 -54q0 -37 10 -58t38 -43q51 -39 66 -28q7 4 12 44t5 90q0 123 27 164z" />
    <glyph glyph-name="v" unicode="v" horiz-adv-x="547" 
d="M352 444q17 28 29.5 32.5t38.5 -7.5t33 -30t7 -71q0 -77 -28 -135t-107 -147l-82 -94l-63 51q-33 26 -45 42.5t-18.5 42t-13.5 84.5q-3 47 -11.5 90.5t-14.5 55.5q-14 27 20 73l35 43l38 -35q25 -24 30 -45.5t-1 -78.5q-3 -35 -3.5 -49.5t5 -30.5t15 -24.5t32.5 -26.5
q38 -29 57.5 -36.5t33 2t29.5 41.5q27 49 24 96t-34 79q-24 26 -25 37t19 41z" />
    <glyph glyph-name="w" unicode="w" horiz-adv-x="746" 
d="M348 405q26 39 41 41t43 -29q31 -33 15 -58q-20 -36 -6 -92.5t51 -91.5q42 -41 62 -32t37 77q14 46 10 62.5t-33 48.5q-30 31 -32.5 43t16.5 38q22 31 52.5 34.5t53.5 -23.5q28 -34 9 -112.5t-79 -170.5q-79 -123 -104 -136.5t-75 38.5l-56 58l-55 -53l-53 -51l-58 40
q-48 32 -62 66t-14 119q0 32 -6 64.5t-14 46.5q-13 22 -10.5 34t25.5 36q24 23 38.5 26t41.5 -10q31 -15 39 -39.5t-14 -37.5q-7 -4 -12 -26.5t-5 -48.5q0 -42 11 -61t50 -47q41 -27 55.5 -29.5t30.5 13.5q21 21 20.5 88t-21.5 102q-12 18 -10 33t18 40z" />
    <glyph glyph-name="x" unicode="x" horiz-adv-x="497" 
d="M156 415q18 20 27.5 24t23 -0.5t48.5 -25.5q39 -23 49 -23t32 23q31 35 60.5 32t29.5 -40q0 -74 -78 -61q-35 4 -38 -16t26 -34q7 -3 15 -5l43 -11l-34 -47l-34 -48l52 -41q35 -28 39.5 -39.5t-9.5 -35.5q-9 -14 -27.5 -31t-34.5 -25q-27 -14 -39.5 -10t-39.5 35l-38 44
l-67 -69q-27 -30 -49.5 -47t-27.5 -11q-15 15 9.5 56.5t56.5 52.5q41 17 56 60q14 40 -13 54q-8 4 -18 4q-25 0 -25.5 6.5t20.5 42.5q22 37 21 48t-28 40q-32 35 -33.5 51.5t25.5 46.5z" />
    <glyph glyph-name="y" unicode="y" horiz-adv-x="580" 
d="M399 362q10 14 21.5 24.5t17.5 10.5q18 0 34 -36.5t16 -76.5q0 -51 -77 -144t-165 -149q-57 -36 -73 -55.5t-16 -52.5q0 -47 40 -74t100.5 -23t114.5 39q30 20 32.5 29t-14.5 29q-25 28 -23.5 46t30.5 44q32 28 50 16.5t18 -61.5q0 -32 -17.5 -60t-68.5 -79
q-79 -75 -119.5 -98t-96.5 -23q-59 0 -94 27.5t-35 75.5q0 40 38 114t90 136q41 51 39.5 123t-44.5 114q-30 31 -32 42.5t17 40.5q35 53 83 29q43 -22 59 -86q13 -51 -2 -103q-24 -86 -7 -86q11 0 49 37q48 47 54 72.5t-19 74.5q-16 31 -16 45t16 38z" />
    <glyph glyph-name="z" unicode="z" horiz-adv-x="481" 
d="M124 369q75 80 216 43q34 -10 34.5 -27.5t-33.5 -63.5q-30 -45 -16 -48q30 0 10 -38q-21 -42 -67 -71q-12 -7 -24 -12q-16 -5 -1 -8q7 -2 19 -2q63 -2 105 -14.5t42 -29.5q0 -9 -13 -28.5t-31 -34.5q-32 -29 -53.5 -34t-79.5 2q-89 10 -113 -11q-26 -22 -23 -5
q3 22 48 89q53 78 46 91q-3 7 -21 7q-12 0 -17.5 2t-5.5 8.5t6 17t19 30.5q11 17 28 29t30 12q14 0 22.5 4.5t8.5 12.5q0 6 -26.5 11.5t-66.5 8.5l-94 5z" />
    <glyph glyph-name="braceleft" unicode="{" horiz-adv-x="315" 
d="M171 610q47 49 52 36q3 -8 -21 -42q-11 -15 -18.5 -45t-7.5 -58q0 -29 -8 -56t-20 -42q-21 -23 -20 -31t28 -25q24 -16 30.5 -39.5t6.5 -91.5q0 -45 5.5 -85t13.5 -52q14 -24 8.5 -54.5t-24.5 -30.5q-21 0 -46.5 61.5t-33.5 130.5q-5 41 -15.5 78t-20.5 50
q-17 20 -15.5 30t25.5 36q36 39 36 111q0 42 9.5 67t35.5 52z" />
    <glyph glyph-name="braceright" unicode="}" horiz-adv-x="332" 
d="M87 585q11 21 19.5 26.5t20.5 -1t37 -30.5q39 -35 39 -98q0 -61 24 -71q23 -7 25 -40.5t-18 -45.5q-20 -10 -10 -121q8 -77 2.5 -101.5t-40.5 -65.5q-39 -47 -48 -41q-2 0 -2 3q0 8 5.5 17t12.5 13q17 10 14 130q-2 49 2.5 94.5t12.5 60.5q11 20 8.5 32.5t-22.5 29.5
q-33 31 -33 93q0 36 -7 51.5t-26 21.5q-20 6 -23 14.5t7 28.5z" />
    <glyph glyph-name="asciitilde" unicode="~" horiz-adv-x="514" 
d="M121 277q23 26 43.5 41.5t28.5 13.5q49 -19 76 -29t53 -18t37.5 -10t23 -0.5t16.5 6t12 13.5q18 25 20.5 25t2.5 -25q0 -36 -27.5 -71t-56.5 -35q-32 0 -98 33q-60 30 -82.5 31t-53.5 -26q-38 -34 -36 -17q1 18 41 68z" />
    <glyph glyph-name="cent" unicode="&#xa2;" horiz-adv-x="481" 
d="M198 707q12 20 24 34t17 14q11 0 17 -119l4 -118l72 -25q28 -8 48.5 -19.5t20.5 -18t-17.5 -19.5t-43.5 -25q-34 -17 -48.5 -18.5t-17.5 11.5q-9 23 -49.5 18.5t-55.5 -30.5q-11 -21 -15 -90.5t1 -131t16 -61.5q29 0 63.5 24.5t53 56t7.5 50.5q-7 11 33 42t48 23
t-12 -83.5t-34 -92.5q-6 -8 -20 -14t-26 -6q-19 0 -25.5 -11t-6.5 -44q0 -42 -17 -68t-44 -26q-9 0 -15.5 7.5t-6.5 17.5q0 26 -44 21l-47 -5l-5 156q-3 110 4 149t43 111q49 102 49 172q0 29 8.5 63.5t20.5 54.5z" />
    <glyph glyph-name="sterling" unicode="&#xa3;" horiz-adv-x="812" 
d="M315 704q62 36 92.5 46t44.5 -2t17 -53q3 -33 -5 -54t-31 -43l-40 -38l-12 76q-12 76 -23 76t-73 -41q-17 -13 -25 -18.5t-16.5 -16t-11 -16.5t-5.5 -23t-3 -31v-45q0 -44 2 -65.5t10 -32t20.5 -7.5t37.5 16q31 17 41 10q6 -7 -12 -26t-44.5 -35.5t-41.5 -16.5
q-10 0 -15.5 -4t-9 -22.5t-4 -47t-0.5 -85.5v-159l54 12q45 10 219 23q12 1 33 2q33 2 46.5 2.5t32.5 4t25 4.5t14.5 9t8.5 12t0.5 18.5t-1.5 24.5t-6 33q-3 15 -4 22l-12 73l55 -31q61 -35 64 -90.5t-51 -120.5q-34 -42 -52 -51t-50 -3q-57 13 -80 36q-23 22 -89 18
t-224 -36q-108 -24 -114 -15q-3 3 4 15t19 25q17 20 25.5 58.5t12.5 116.5q7 118 -1 129q-5 7 -27 -4q-35 -19 -35 -4q0 8 9.5 18t23.5 17q20 11 26.5 33t6.5 81q0 31 1.5 49t9 37.5t17 32t31.5 30.5t46.5 34t68.5 43z" />
    <glyph glyph-name="Agrave" unicode="&#xc0;" horiz-adv-x="961" 
d="M219 893q0 12 17 13.5t40.5 -7t41.5 -22.5q25 -20 27 -28t-17 -24q-17 -15 -29.5 -12t-38.5 27q-41 39 -41 53zM241 748q23 10 63 18t72 8q51 0 56 -1q27 -6 58 -57q24 -37 170 -318q83 -159 119.5 -214.5t60.5 -61.5q39 -10 41 -42.5t-34 -68.5t-70 -24q-52 13 -97 20
l-63 10l26 45q14 23 16 37.5t-4 35t-30 73.5l-45 101l-61 -30q-37 -19 -57.5 -20.5t-50.5 10.5q-64 27 -99.5 5t-49.5 -98l-10 -61l76 -13l78 -15l-53 -57q-34 -35 -52.5 -43.5t-49.5 -0.5q-60 10 -118 10q-48 0 -53 4.5t13 31.5q26 35 63 56q36 20 75 133q91 259 121.5 352
t25.5 97q-11 11 -88 6.5t-101 -16.5q-38 -20 -43.5 -16t15.5 37q12 17 35 36.5t45 30.5zM491 481q-57 111 -70 118q-6 3 -35.5 -62t-54.5 -133t-19 -74q1 -2 17 7t37 25q37 26 53.5 28.5t57.5 -12.5q58 -21 67 -15q1 2 -5 18t-19 43t-29 57z" />
    <glyph glyph-name="Aacute" unicode="&#xc1;" horiz-adv-x="961" 
d="M401 867q81 67 89 52q2 -2 2 -7q0 -17 -68.5 -69.5t-77.5 -43.5q-5 5 11 24.5t44 43.5zM232 748q23 10 63 18t72 8q51 0 56 -1q27 -6 58 -57q24 -37 170 -318q83 -159 119.5 -214.5t60.5 -61.5q39 -10 41.5 -48t-32.5 -70q-22 -20 -39 -22t-59 10q-60 20 -100 20
q-27 0 -28 6.5t20 43.5q16 26 18.5 40.5t-4 34t-32.5 72.5l-46 100l-60 -30q-37 -19 -57.5 -20.5t-50.5 10.5q-64 27 -99.5 5t-49.5 -98l-10 -61l76 -13l78 -15l-53 -57q-34 -35 -52.5 -43.5t-49.5 -0.5q-60 10 -118 10q-48 0 -53 4.5t13 31.5q26 35 63 56q36 20 75 133
q91 259 121.5 352t25.5 97q-11 11 -88 6.5t-101 -16.5q-38 -20 -43.5 -16t15.5 37q12 17 35 36.5t45 30.5zM482 481q-57 111 -70 118q-6 3 -35.5 -62t-54.5 -133t-19 -74q1 -2 17 7t37 25q37 26 53.5 28.5t57.5 -12.5q58 -21 67 -15q1 2 -5 18t-19 43t-29 57z" />
    <glyph glyph-name="Acircumflex" unicode="&#xc2;" horiz-adv-x="961" 
d="M307 857q12 17 24 33t19.5 24.5t9.5 8.5q3 0 63 -35q39 -25 43.5 -34t-12.5 -26.5t-26.5 -17t-32.5 21.5q-25 23 -34.5 22t-37.5 -27q-51 -48 -50 -31q1 14 34 61zM234 741q54 33 141 33q54 0 69 -6q31 -14 73 -87q26 -46 144 -278q83 -162 117.5 -215t65.5 -65
q87 -35 8 -109q-27 -26 -43.5 -29.5t-51.5 9.5q-54 18 -91 18q-34 0 -36.5 9t21.5 48q18 26 15 47t-33 88q-42 98 -48 103q-3 6 -58 -28q-35 -21 -53 -23t-53 13q-37 15 -77 9t-54 -29q-6 -9 -20 -74q-8 -45 -1 -54t58 -18q68 -12 68 -23q0 -10 -43 -60q-25 -27 -43.5 -34
t-49.5 0q-56 10 -116 10q-45 0 -52 4.5t6 28.5q7 14 24 29.5t32 21.5q21 10 45.5 56t62.5 151q65 169 101 287l29 99l-44 5q-34 4 -84 -4t-90 -24q-20 -9 -22 -5.5t10 28.5q9 15 30.5 35.5t42.5 32.5zM502 473q-60 111 -72 124q-5 4 -18 -17q-19 -32 -44 -99
q-11 -29 -24.5 -64.5t-21 -56t-8.5 -23.5q-2 -5 7 -2q15 4 47 23q38 25 59 28.5t54 -8.5q59 -21 65 -10q8 11 -39 96q-2 4 -5 9z" />
    <glyph glyph-name="Atilde" unicode="&#xc3;" horiz-adv-x="961" 
d="M239 865q24 25 36 31.5t27.5 5t57.5 -14.5q142 -43 180 -4q6 6 10 9t6 3t3 -3t1 -9q0 -27 -45 -65.5t-67 -31.5q-52 17 -106 38q-57 21 -72.5 20.5t-40.5 -22.5q-33 -30 -32 -16q0 16 42 59zM234 731q54 33 138 33q54 0 67 -5q29 -11 68 -75q26 -43 148 -278
q89 -172 125 -227.5t65 -66.5q87 -33 7 -108q-27 -26 -43.5 -29.5t-51.5 9.5q-54 18 -91 18q-34 0 -37.5 12.5t21.5 47.5q16 22 13 44.5t-33 87.5q-35 80 -46 103q-4 7 -48 -23q-29 -19 -49.5 -21t-63.5 9q-131 35 -151 -64q-4 -24 -6 -37t-1.5 -25.5t3.5 -18t11.5 -11
t19 -8t29.5 -5.5q67 -12 67 -23q0 -5 -13.5 -21t-31.5 -34q-32 -30 -56.5 -35.5t-100.5 1.5q-47 3 -80 9.5t-33 11.5q0 14 60 61q19 16 31.5 31.5t26 37.5t32.5 72t40 108.5t60 173.5q54 161 43 172q-12 13 -89.5 9t-105.5 -19q-24 -13 -26.5 -10.5t11.5 27.5q7 14 28.5 34
t42.5 32zM499 463q-67 124 -81 130q-8 4 -13 -10v-3q-40 -106 -52 -137q-41 -110 -41 -119q0 -6 58 28q35 22 56 25t53 -9q55 -18 66 -18q13 0 -46 113z" />
    <glyph glyph-name="Adieresis" unicode="&#xc4;" horiz-adv-x="961" 
d="M262 855q7 17 23.5 21t31.5 -6t18 -28q5 -25 -21 -37.5t-45 6.5q-8 7 -10 20t3 24zM413 864q14 22 36 15.5t22 -32.5q0 -14 -6.5 -23.5t-16.5 -9.5q-23 0 -34 16t-1 34zM244 731q54 33 138 33q54 0 65 -4q28 -9 64 -68q24 -39 150 -282q90 -172 127 -229.5t67 -68.5
q87 -33 7 -108q-27 -26 -43.5 -29.5t-51.5 9.5q-54 18 -91 18q-34 0 -37.5 12.5t22.5 47.5q16 24 12 45.5t-36 91.5q-36 76 -47.5 86.5t-39.5 -8.5q-32 -22 -71.5 -25t-73.5 15q-36 19 -75 -3t-48 -66q-4 -24 -6 -37t-1.5 -25.5t3.5 -18t11.5 -11t19 -8t29.5 -5.5
q67 -12 67 -23q0 -5 -13.5 -21t-31.5 -34q-32 -30 -56.5 -35.5t-100.5 1.5q-47 3 -80 9.5t-33 11.5q0 14 60 61q32 26 54 62.5t50 111.5t86 251q51 161 43 172q-12 12 -89.5 7.5t-105.5 -19.5q-24 -13 -26.5 -10.5t11.5 27.5q7 14 28.5 34t42.5 32zM517 446q-75 136 -89 144
q-8 5 -13 -10q-40 -106 -52 -137q-41 -110 -41 -119q0 -6 60 29q36 22 54 24.5t45 -9.5q64 -28 71.5 -13t-35.5 91z" />
    <glyph glyph-name="Aring" unicode="&#xc5;" horiz-adv-x="961" 
d="M299 888q14 17 31.5 22t32.5 -0.5t27.5 -17.5t14 -29t-7.5 -36q-10 -20 -33 -27t-44.5 1.5t-28.5 28.5q-4 16 -1.5 32t9.5 26zM362 845q3 8 -3.5 13.5t-17.5 5.5t-17.5 -5.5t-4.5 -13.5q3 -7 9 -11.5t12.5 -4.5t13 4.5t8.5 11.5zM205 731q54 33 141 33q54 0 69 -6
q31 -14 73 -87q26 -46 144 -278q83 -162 117.5 -215t65.5 -65q87 -35 8 -109q-27 -26 -43.5 -29.5t-51.5 9.5q-54 18 -91 18q-34 0 -36.5 9t21.5 48q18 26 15 47t-33 88q-42 98 -48 103q-3 6 -58 -28q-35 -21 -53 -23t-53 13q-37 15 -77 9t-54 -29q-6 -9 -20 -74
q-8 -45 -1 -54t58 -18q68 -12 68 -23q0 -10 -43 -60q-25 -27 -43.5 -34t-49.5 0q-56 10 -116 10q-45 0 -52 4.5t6 28.5q7 14 23.5 29.5t32.5 23.5q22 10 46.5 57.5t69.5 169.5q74 205 99 286l23 78l-44 5q-34 4 -84 -4t-90 -24q-20 -9 -22 -5.5t10 28.5q9 15 30.5 35.5
t42.5 32.5zM473 463q-60 111 -72 124q-5 4 -18 -17q-19 -32 -44 -99q-11 -29 -24.5 -64.5t-21 -56t-8.5 -23.5q-2 -5 7 -2q15 4 47 23q38 25 59 28.5t54 -8.5q59 -21 65 -10q8 11 -39 96q-2 4 -5 9z" />
    <glyph glyph-name="Ccedilla" unicode="&#xc7;" 
d="M229 612q31 30 58 53.5t31 23.5q12 0 48 -39q19 -21 25 -37.5t6.5 -47t-6.5 -107.5q-5 -77 -11.5 -110.5t-18.5 -57t-46 -66.5l-64 -83l58 -23q62 -25 74 -25q35 0 35 146q0 131 12.5 274t23.5 143q7 0 8 -10.5t-4 -25.5q-7 -21 -1 -21q7 -1 55 37q36 28 49 35t22 5
t24 -18q25 -27 26 -69.5t-23 -74.5q-10 -13 -18.5 -20t-11.5 -3q-20 30 -36 56q-23 35 -31 37t-29 -20q-18 -20 -26 -67.5t-15 -183.5q-10 -181 -4 -204q9 -15 27 -16q14 0 44 17.5t57 42.5q69 62 64 42q-6 -22 -87 -110q-56 -60 -99.5 -134t-43.5 -111q0 -5 16 -8.5
t39 -3.5q37 0 38 -6q0 -4 -10 -10q-10 -7 -33.5 -12t-44.5 -5q-46 0 -53 21t22 77q23 43 8 64.5t-84 42.5q-72 22 -132.5 67.5t-79.5 93.5q-22 50 -12.5 147.5t41.5 159.5q14 25 47 67t66 77zM294 540q-29 31 -50 31.5t-48 -29.5q-49 -54 -57 -150t32 -160q21 -35 33 -45
t24.5 -4.5t37 31.5t39.5 96.5t12 139t-23 90.5z" />
    <glyph glyph-name="Egrave" unicode="&#xc8;" 
d="M237 869q22 14 33 11t67 -40q47 -29 53.5 -40.5t-10.5 -36.5q-28 -41 -48 -37.5t-63 58.5q-33 42 -39.5 59.5t7.5 25.5zM222 647q22 22 41.5 35t26.5 8q25 -15 43.5 -82.5t18.5 -143.5q0 -69 -9 -100t-43 -77l-53 -73l53 -46q53 -46 70 -46t5 280q-7 151 -5 217t13 72
q16 12 18 -41v-13q0 -68 12 -68q4 0 24.5 20.5t43.5 47.5q58 66 93 61q21 -3 32.5 -25.5t7.5 -54.5t-22 -59q-19 -29 -17.5 -34.5t25.5 -5.5q22 0 29.5 -17t-1.5 -43.5t-31 -50.5q-20 -21 -43.5 -29.5t-64.5 -8.5h-71v-132q0 -133 21 -133q41 0 93.5 22.5t70.5 48.5
q30 35 30 14q0 -27 -56 -92t-98 -86q-57 -30 -136.5 -19t-136.5 57q-74 60 -105.5 124.5t-23.5 142.5q7 80 50.5 178.5t94.5 151.5zM507 556q-18 29 -49 5q-35 -27 -40 -80v-12q0 -20 5 -19q8 0 43 39q20 22 32 42t9 25zM236 484q-20 73 -38 65q-11 -5 -20 -45
q-11 -60 -8.5 -117t19 -96t37.5 -32q18 6 22 86t-12 139z" />
    <glyph glyph-name="Eacute" unicode="&#xc9;" horiz-adv-x="729" 
d="M398 839q85 66 113 63q6 -1 6 -7q0 -5 -84 -78q-84 -70 -100 -54q-6 6 11.5 26.5t53.5 49.5zM393 701q13 21 18 -17q2 -15 4 -39l5 -81l67 69q108 115 119 26q1 -10 1 -24q0 -56 -14 -86q-7 -17 -2.5 -23.5t24.5 -6.5q36 0 34 -29q-3 -31 -44 -74q-26 -27 -50 -36.5
t-66 -9.5h-71v-132q0 -133 21 -133q36 0 91 22t85 48l41 38l-29 -50q-61 -99 -125.5 -138.5t-153.5 -32.5q-75 8 -142 58t-102.5 124t-25.5 146q14 88 50.5 172.5t85.5 142.5l61 71l38 -44q25 -29 32 -60t7 -114q0 -89 -8.5 -120.5t-43.5 -80.5l-53 -73l57 -46
q55 -46 69 -46q4 0 7 36.5t4 98.5t-1 143q-3 126 -0.5 208t10.5 93zM507 556q-15 25 -47 -3q-36 -30 -42 -75v-10q1 -26 6 -27t31 31q4 6 11 14q19 23 31.5 44t9.5 26zM236 509q-7 17 -16.5 30t-15.5 13q-12 0 -23.5 -51t-11.5 -113q0 -31 11.5 -63.5t27.5 -51t29 -11.5
q15 10 15 109t-16 138z" />
    <glyph glyph-name="Ecircumflex" unicode="&#xca;" 
d="M337 827q29 37 53.5 63.5t30.5 26.5q22 0 92 -45.5t70 -59.5q0 -18 -23 -48q-10 -15 -18.5 -17t-23 5t-49.5 32l-68 50l-51 -58q-56 -63 -64 -48q-10 17 48 96q1 2 3 3zM381 708q6 6 11 -21q4 -18 6 -45l5 -78l73 71q73 71 98 61q65 -25 21 -121q-20 -41 -19.5 -48.5
t24.5 -7.5q21 0 28.5 -14.5t-0.5 -39t-30 -52.5q-21 -27 -42.5 -35t-74.5 -8h-83l12 -127q12 -133 16 -135q11 -12 68 9t89 49q48 39 48 28q1 -10 -39 -69q-40 -60 -106 -98t-129 -38q-66 0 -133 44t-110.5 112t-43.5 134q0 72 27.5 158t73.5 155q47 70 73 83.5t58 -15.5
q21 -19 27 -50.5t6 -123.5q0 -100 -7.5 -131.5t-40.5 -77.5l-50 -66l57 -45q56 -44 64 -44q10 0 10 286q0 289 13 300zM236 383q-3 129 -24 158q-15 21 -23 11q-6 -9 -18 -56q-18 -75 -17 -112t24 -80q39 -78 51 -24q7 30 7 103zM501 547q0 26 -26 21t-47 -36
q-11 -14 -19 -34.5t-8 -34.5q0 -21 7 -20q7 0 43 35q21 19 35.5 39.5t14.5 29.5z" />
    <glyph glyph-name="Edieresis" unicode="&#xcb;" 
d="M294 826q6 16 22.5 20t32 -5.5t18.5 -28.5q5 -25 -21.5 -37.5t-44.5 6.5q-8 7 -10 20t3 25zM446 826q9 21 31.5 23.5t35.5 -17.5q11 -19 -8 -35.5t-42 -7.5q-11 5 -15.5 15t-1.5 22zM380 678q9 30 12 30q4 0 8 -60q6 -79 15 -79t66 66q24 28 50 47t40 19q21 0 33.5 -21
t10.5 -53.5t-18 -60.5q-19 -34 -18 -40.5t23 -6.5t29.5 -17t-1.5 -43.5t-31 -50.5q-20 -21 -43.5 -29.5t-64.5 -8.5h-71v-132q0 -133 21 -133q39 0 89.5 22t71.5 48q33 39 32 22q-1 -24 -49 -89q-49 -69 -103.5 -95.5t-131.5 -20.5q-71 8 -134.5 53t-107.5 120
q-22 39 -28 69t-1 81q7 83 52 184.5t97 150.5l54 53l32 -46q31 -51 36 -168q5 -87 -1.5 -115.5t-46.5 -81.5l-53 -76l52 -48q55 -46 71 -46q17 0 5 255q-5 104 -4 192.5t7 108.5zM509 556q-18 29 -49 5q-35 -27 -40 -80v-12q0 -20 5 -19q8 0 43 39q20 22 32 42t9 25z
M229 524q-29 72 -54 -46q-19 -88 8 -167q18 -55 44 -52q5 0 11 3q16 11 12.5 113t-21.5 149z" />
    <glyph glyph-name="Igrave" unicode="&#xcc;" horiz-adv-x="564" 
d="M160 995l13.5 4.5t12.5 3.5t7 2q5 0 71 -43l66 -43l-38 -40l-36 -38l-63 61q-29 28 -42 43t-17 26t2 15.5t24 8.5zM287 811q52 31 124 27q18 -1 28 -2t20.5 -5t14.5 -7.5t7.5 -14.5t3 -20.5t-3.5 -31.5t-7 -41.5t-11.5 -55.5t-13 -123t-5.5 -171q0 -165 -16.5 -232.5
t-75.5 -145.5q-30 -39 -50 -48.5t-71 -9.5q-46 0 -81 15t-53 39t-17 55t23 62q23 28 36.5 25.5t43.5 -40.5q41 -50 54 -7q9 29 9 111q0 102 -17.5 144t-60.5 47l-47 5l60 57q24 24 50 56t38 52q22 43 55.5 83.5t45.5 40.5q9 0 -27 -53q-25 -35 -30 -74.5t-3 -185.5
q1 -135 -4 -183t-26 -88q-26 -51 -16 -68t59 -7q26 5 38.5 91t14.5 272q3 180 39 330q3 14 -20 25.5t-53.5 13t-59.5 -7.5q-19 -8 -46 -25.5t-45 -35.5q-38 -35 -39 -29q-1 3 4 17q13 34 50 75t81 69z" />
    <glyph glyph-name="Iacute" unicode="&#xcd;" horiz-adv-x="564" 
d="M311 937q32 25 59.5 40t33.5 11q9 -5 -22 -39t-71.5 -66t-55.5 -32q-35 0 -7 30q17 19 63 56zM283 798q32 21 60.5 28t71.5 5q3 0 9 -1q55 -3 60.5 -26t-14.5 -157q-2 -13 -3 -20q-15 -94 -19 -303q0 -105 -6.5 -156.5t-25 -91.5t-62.5 -98q-26 -36 -46.5 -45.5
t-72.5 -9.5q-48 0 -83 14.5t-51.5 37.5t-13.5 53.5t28 61.5l32 40l36 -46q15 -19 30.5 -29.5t21.5 -7.5q13 9 14 145t-13 157q-5 7 -22.5 14.5t-38.5 10.5l-48 5l58 57q24 23 49 55t37 53q10 21 33.5 50t46.5 50l53 49l-45 -59q-15 -21 -21.5 -33.5t-12.5 -28t-6.5 -45.5
t-0.5 -63t1 -104q3 -130 -2 -182t-23 -84q-28 -54 -25.5 -71t39.5 -17q24 0 37.5 11.5t22 46t11.5 88.5t3 149q0 88 7 180.5t16 133.5q14 66 14 87t-15 26q-28 8 -47 15q-30 9 -76 -12.5t-76 -57.5q-15 -18 -29 -29t-17 -7q-12 12 33.5 71.5t90.5 89.5z" />
    <glyph glyph-name="Icircumflex" unicode="&#xce;" horiz-adv-x="564" 
d="M261 922l81 73l67 -26q52 -21 70 -44.5t-2 -43.5q-17 -17 -83 15l-65 35l-50 -40q-57 -48 -70 -40q-13 7 32 52q9 10 20 19zM279 802q49 29 121 31t83 -26q4 -9 1.5 -37t-11.5 -53q-7 -26 -16 -121.5t-14 -204.5q-5 -145 -13 -209t-25.5 -106.5t-60.5 -98.5
q-26 -37 -46.5 -46t-74.5 -9q-51 0 -72 8t-42 35q-32 41 -32.5 64.5t30.5 59.5l32 40l39 -48q22 -26 34 -32.5t19 4.5q10 17 10 150.5t-11 150.5q-4 6 -22 10.5t-40 4.5l-53 2l58 53q24 22 50 55.5t40 58.5q12 25 36 56.5t45 51.5l50 46l-45 -68q-14 -22 -20.5 -34
t-12.5 -32.5t-6 -43t-2 -65t1 -98.5q4 -125 -0.5 -175.5t-22.5 -86.5q-30 -56 -28 -70t40 -14q30 0 45.5 22.5t22 77t6.5 162.5q1 133 13.5 257t28.5 163q6 16 -1.5 26.5t-32.5 20.5q-46 17 -101 -1.5t-87 -61.5q-29 -37 -34 -26q-1 3 -1 7q0 28 38 74.5t84 75.5z" />
    <glyph glyph-name="Idieresis" unicode="&#xcf;" horiz-adv-x="564" 
d="M256 945q19 22 31 23.5t30 -17.5q20 -20 10 -42t-38 -22q-31 0 -41.5 18.5t8.5 39.5zM417 960q14 12 31 3t20 -32q3 -14 -4 -21t-24 -7q-25 0 -32.5 19t9.5 38zM279 806q49 29 121 31t83 -26q4 -10 1.5 -36t-9.5 -51q-8 -24 -16.5 -120t-13.5 -206q-7 -147 -16 -217
t-26.5 -114t-56.5 -90q-28 -33 -49.5 -42t-73.5 -9q-51 0 -72 8t-42 35q-33 41 -33 64.5t33 64.5l35 45l31 -50q64 -104 69 23q2 49 -4 133l-9 116l-56 8l-58 9l56 46q24 21 49.5 52.5t37.5 56.5q12 27 36 59.5t46 51.5l52 48l-45 -68q-14 -22 -20.5 -34t-12.5 -33t-6 -44
t-2 -67.5t1 -102.5q4 -134 -0.5 -182.5t-22.5 -76.5q-30 -46 -27.5 -62.5t39.5 -16.5q31 0 46.5 20.5t21.5 72.5t6 159q0 132 13 259.5t30 172.5q10 28 -35 45q-46 17 -101 -1.5t-87 -61.5q-29 -37 -34 -26q-1 3 -1 7q0 28 38 74.5t84 75.5z" />
    <glyph glyph-name="Ntilde" unicode="&#xd1;" horiz-adv-x="845" 
d="M244 847q2 2 5 6q15 16 21 22t18.5 12.5t17.5 7t23.5 -2t31 -6.5t45.5 -13q4 -2 7 -2q62 -19 81 -19t40 20q34 31 38 14q4 -19 -32 -57l-8 -8l-50 -48l-101 38q-67 24 -89 26t-40 -14q-39 -35 -41 -23t33 47zM274 722q27 50 39 48q1 0 2 -2q3 -9 9.5 -11.5t12.5 1.5
q26 16 76 -9.5t116 -88.5q117 -110 142.5 -200.5t-21.5 -224.5q-36 -103 -29 -112q3 -6 19 1q16 6 46.5 -1.5t55 -22.5t24.5 -28q0 -22 -42 -62t-64 -40q-10 0 -20.5 5t-14.5 11q-11 17 -49 15.5t-55 -18.5q-7 -7 -5 8q3 23 23 78q39 101 53 162l11 57l-41 -27
q-40 -28 -106 -17q-138 23 -138 -84q0 -56 25 -61q19 -3 8 -24q-7 -11 -23 -31q-27 -33 -48.5 -41.5t-83.5 -8.5q-93 0 -93 5q0 6 33 48q31 42 34 113t-27 88q-19 11 -18.5 21t20.5 45q19 32 20.5 46.5t-12.5 31.5q-20 25 -56 15q-22 -7 -22 -2q-1 5 31 40q40 40 90 129
q14 28 45 86t33 62zM300 263q-4 266 -25 355q-6 26 -11 14q-10 -22 -10.5 -151t8 -250.5t20.5 -125.5q8 -2 12 12q8 27 6 146zM381 625q-43 24 -54 24q-9 0 -9 -191q0 -79 3.5 -134.5t8.5 -55.5q10 0 51 38q24 21 50.5 28.5t79.5 6.5q24 0 44.5 1.5t32.5 5t12 6.5
q0 45 -78.5 142t-140.5 129z" />
    <glyph glyph-name="Ograve" unicode="&#xd2;" horiz-adv-x="746" 
d="M225 852q21 14 32 11.5t65 -39.5q32 -22 45 -31.5t16.5 -21t-3 -20t-24.5 -25.5q-27 -25 -50.5 -13t-69.5 76q-21 30 -23 42.5t12 20.5zM430 678l42 42l67 -39q80 -43 105.5 -86t25.5 -129q0 -90 -43.5 -182.5t-126.5 -176.5q-91 -95 -164.5 -107.5t-158.5 50.5
q-58 44 -80.5 98t-22.5 149q0 66 9.5 108.5t38.5 103.5q22 44 48.5 85t44.5 58q30 27 40 29t29 -18q19 -17 20.5 -55.5t-8.5 -169.5q-11 -131 -20.5 -172.5t-34.5 -67.5l-38 -40l50 -26q56 -30 71 -27q23 5 29 74q4 45 6 213q3 195 4 197l4 -106q2 -52 5.5 -98t7.5 -72
t7 -26q16 0 22 13q6 14 53 49q27 22 43.5 26t35.5 -7q39 -21 57.5 2t2.5 71q-19 56 -48 85t-91 53q-30 11 -51.5 24t-21.5 19q0 15 41 56zM233 546q-16 61 -44 29.5t-50 -135.5q-17 -83 0 -148q32 -110 55 -105q2 1 4 3q13 12 28 168t7 188zM568 234q47 84 27 82
q-12 -1 -44 -34q-30 -30 -44 -34t-45 9q-29 14 -40.5 12t-27.5 -23q-9 -15 -15 -42t-4 -49q3 -36 10.5 -46t28.5 -7q40 6 81 41.5t73 90.5z" />
    <glyph glyph-name="Oacute" unicode="&#xd3;" horiz-adv-x="762" 
d="M401 808q30 24 56 38t32 10q10 -6 -22.5 -39.5t-76 -65t-62.5 -32.5q-22 0 -21 6q0 10 84 75zM436 679q20 22 36.5 26t40 -6t72.5 -41q55 -37 76.5 -80.5t21.5 -118.5q0 -66 -43.5 -156.5t-110.5 -169t-133 -111.5q-44 -23 -66.5 -26t-62.5 9q-66 20 -122.5 86t-66.5 136
q-12 84 13 179t82 180q51 76 76.5 91.5t50.5 -14.5q11 -14 11.5 -80t-7.5 -141.5t-22.5 -145.5t-29.5 -91q-27 -38 -17 -56t72 -41l45 -19v270q0 109 5 196t11 98q7 9 10 -12q7 -34 7 -161v-198l48 46q29 28 50.5 35.5t60.5 4.5q58 -5 68.5 20t-22.5 92q-17 35 -40.5 56
t-68.5 40q-34 15 -57 29t-23 21t10.5 23t24.5 30zM227 399q0 183 -25 184q-12 1 -31 -41q-27 -58 -30.5 -148.5t18.5 -145.5q54 -127 65 53q3 41 3 98zM592 268q29 59 18 60q-11 2 -56 -43q-32 -32 -46 -38.5t-27 5.5q-21 21 -49.5 19t-36.5 -26q-4 -9 -6.5 -28.5
t-3.5 -40.5t-0.5 -41t3 -33t5.5 -13q11 0 55 24q88 46 144 155z" />
    <glyph glyph-name="Ocircumflex" unicode="&#xd4;" horiz-adv-x="746" 
d="M281 813q20 26 39 49.5t30.5 37t13.5 13.5q6 0 91 -52q52 -32 64 -46.5t2 -34.5q-21 -38 -41 -40t-63 30q-55 43 -68 43q-5 0 -21.5 -14.5t-33.5 -34.5q-16 -20 -35 -35t-29 -15q-25 0 51 99zM430 674l42 42l67 -39q80 -43 105.5 -86t25.5 -129q0 -60 -10 -99t-41 -95
q-46 -87 -123.5 -167.5t-133.5 -98.5q-36 -13 -60.5 -9.5t-75.5 29.5q-85 42 -118.5 100.5t-33.5 165.5q0 69 9.5 111.5t38.5 105.5q22 44 48.5 85t44.5 58q30 27 40 29t29 -18q19 -17 20.5 -55.5t-8.5 -169.5q-11 -131 -20.5 -172.5t-34.5 -67.5l-38 -40l50 -26
q56 -30 71 -27q23 5 29 74q4 45 6 213q3 195 4 197l4 -106q2 -52 5.5 -98t7.5 -72t7 -26q16 0 22 13q6 14 53 49q27 22 43.5 26t35.5 -7q39 -21 57.5 2t2.5 71q-19 56 -48 85t-91 53q-30 11 -51.5 24t-21.5 19q0 15 41 56zM233 542q-16 61 -44 29.5t-50 -135.5
q-17 -83 0 -148q32 -110 55 -105q2 1 4 3q13 12 28 168t7 188zM568 230q47 84 27 82q-12 -1 -44 -34q-30 -30 -44 -34t-45 9q-29 14 -40.5 12t-27.5 -23q-9 -15 -15 -42t-4 -49q3 -36 10.5 -46t28.5 -7q40 6 81 41.5t73 90.5z" />
    <glyph glyph-name="Otilde" unicode="&#xd5;" horiz-adv-x="762" 
d="M222 829q24 24 40.5 30.5t43.5 3t90.5 -22t82 -18t40.5 21.5q32 29 34 11q2 -22 -34 -59q-5 -6 -12 -12l-41 -40l-108 38q-76 28 -96.5 29t-44.5 -19q-30 -28 -30 -15q0 14 35 52zM434 681q20 21 29 25t21 1t46 -21q145 -74 152 -204.5t-123 -308.5q-33 -44 -74.5 -84
t-74.5 -60q-55 -30 -76 -34t-67 9q-61 19 -118.5 75.5t-68.5 108.5q-21 106 9 222t104 213q93 124 109 7q7 -60 -3 -185q-14 -182 -48 -234q-26 -43 -16 -62t72 -42l45 -19l1 287q0 266 14 254q0 -1 1 -2q6 -14 10.5 -69t4.5 -120l2 -154l58 51q37 32 54 38.5t38 -5.5
q19 -9 32 -8.5t26 12.5q16 13 17.5 36t-11 49t-33 51.5t-50 46.5t-60.5 32q-47 15 -51.5 35.5t29.5 58.5zM224 395q3 185 -22 186q-14 1 -39 -62q-25 -64 -25.5 -149t25.5 -136q38 -73 52 2q8 47 9 159zM592 276q11 27 16.5 44t3.5 17q-4 0 -55 -51q-33 -34 -48.5 -39
t-35.5 9q-45 27 -66.5 6t-21.5 -91q0 -83 8 -83q18 0 64.5 30t71.5 57q15 16 33.5 45.5t29.5 55.5z" />
    <glyph glyph-name="Odieresis" unicode="&#xd6;" horiz-adv-x="746" 
d="M237 809q7 21 37.5 23t43.5 -18q4 -8 -0.5 -21t-14.5 -24q-16 -15 -26 -16t-25 11q-10 9 -14.5 22t-0.5 23zM394 804q-2 15 4.5 21.5t23.5 6.5q19 0 27 -8t8 -27q0 -20 -14 -26.5t-29.5 3t-19.5 30.5zM432 676l42 42l67 -39q79 -43 105 -86t26 -129q0 -89 -39.5 -173.5
t-122.5 -175.5q-96 -102 -169.5 -116.5t-161.5 49.5q-59 44 -81 98t-22 152q0 71 9.5 112.5t40.5 100.5q19 40 46 81t45 58q30 27 40 29t29 -18q19 -17 20.5 -55.5t-8.5 -169.5q-11 -131 -20.5 -172.5t-34.5 -67.5l-38 -40l50 -26q56 -30 71 -27q23 5 29 74q4 45 6 213
q3 195 4 197l4 -106q2 -52 5.5 -98t7.5 -72t7 -26q16 0 22 13q6 14 53 49q27 22 43.5 26t35.5 -7q39 -21 57.5 2t2.5 71q-19 56 -48 85t-91 53q-30 11 -51.5 24t-21.5 19q0 15 41 56zM235 544q-16 61 -44 29.5t-50 -135.5q-17 -83 0 -148q32 -110 55 -105q2 1 4 3
q13 12 28 168t7 188zM566 229q52 87 31 86q-11 -1 -44 -35q-30 -30 -44.5 -34.5t-41.5 8.5q-46 21 -69.5 -3t-23.5 -93q0 -52 5.5 -61t32.5 -1q50 17 86 47.5t68 85.5z" />
    <glyph glyph-name="multiply" unicode="&#xd7;" horiz-adv-x="481" 
d="M101 334q10 17 20.5 30t14.5 13q9 0 58 -50l48 -49l52 49q27 27 37.5 34t19 4.5t22.5 -18.5q29 -31 26.5 -48t-41.5 -58l-45 -45l45 -58q75 -98 12 -137q-21 -12 -34 -4.5t-44 50.5l-45 67l-54 -53l-55 -53l-18 44q-16 45 -13.5 58t34.5 48l37 40l-52 45q-37 34 -40.5 46
t15.5 45z" />
    <glyph glyph-name="Ugrave" unicode="&#xd9;" horiz-adv-x="1094" 
d="M385 887q26 17 42.5 14t64.5 -34q49 -32 55 -52t-26 -49q-15 -14 -25 -15t-24 10t-48 45q-39 41 -46.5 56t7.5 25zM244 768q19 11 53 16t61 2t27 -13q0 -7 17 -17.5t39 -17.5q39 -13 50 -27.5t16 -60.5q16 -112 19 -114q2 -1 4 18q1 18 2 71q0 51 5 91.5t12 44.5
q5 4 10 -13.5t10.5 -68t11 -131t12.5 -211.5q4 -64 6.5 -96.5t7.5 -52.5t10.5 -25t17.5 -5q46 0 72 41.5t26 112.5q0 78 10 217q9 106 0 116q-4 5 -17 0q-32 -12 -24 8q8 22 60 72q44 41 64.5 48t75.5 0l77 -10l-33 -55q-15 -22 -37 -40.5t-37 -22.5q-24 -6 -30 -19
q-10 -22 -10 -170v-53v-230l63 12q50 8 62 9t37 -1q18 -2 20.5 -23t-10 -49t-35.5 -49q-27 -25 -56.5 -35.5t-83.5 -14.5q-29 -2 -40.5 -2.5t-25.5 0t-18 2t-9.5 8t-7 12t-4.5 18.5l-10 47l-73 -52q-78 -55 -158.5 -59.5t-148 41.5t-110.5 136q-39 83 -41 183.5t33 204.5
q23 70 23 82t-25 12q-13 0 -39 -10.5t-50 -25.5q-49 -28 -50 -24q-1 3 8 20q17 29 72 81.5t89 71.5zM358 604q-47 21 -59.5 11.5t-21.5 -74.5q-10 -73 12.5 -163.5t63.5 -143.5q15 -18 21.5 -25t13 -9t10 2t10.5 16q12 23 12 123t-12 183q-5 33 -16.5 51.5t-33.5 28.5z
M550 153q11 14 2 113l-10 99l-53 -88q-55 -88 -55 -101t53 -23.5t63 0.5z" />
    <glyph glyph-name="Uacute" unicode="&#xda;" horiz-adv-x="1094" 
d="M517 877q30 24 56 38t32 10q9 -5 -22.5 -39t-72.5 -66t-56 -32q-39 0 14 48q18 16 49 41zM209 745q31 20 73 32.5t72.5 11.5t30.5 -16q0 -7 16.5 -17.5t39.5 -17.5q16 -5 24 -8t16.5 -10t11 -12.5t6.5 -22t5.5 -31t4.5 -45.5q12 -130 18 -123t3 114q-5 136 17 158
q15 15 18 -12q2 -14 2 -41q1 -110 16.5 -322t23.5 -220q3 -4 20.5 -0.5t37.5 12.5q29 11 36 22q16 22 27 153q3 43 13 179q3 45 4 67.5t-0.5 38.5t-6 15.5t-12.5 -0.5q-32 -12 -24 9t54 71q36 38 54.5 46.5t49.5 1.5q48 -13 75 -10q12 0 20.5 -6t8.5 -16q0 -17 -48.5 -62
t-68.5 -45q-6 0 -10.5 -67.5t-4.5 -164.5q0 -232 13 -232t66 15q81 23 99.5 -12.5t-42.5 -100.5q-29 -31 -56 -41t-92 -15l-104 -9v48v47l-76 -52q-149 -101 -283 -31q-62 31 -104 89t-61 131.5t-14.5 160.5t34.5 174q24 61 24 69q-3 9 -19 8.5t-43.5 -10.5t-50.5 -24
q-43 -26 -53 -20q1 17 46.5 63.5t92.5 79.5zM405 513q-7 36 -21 57t-44 40l-53 30l-12 -79q-11 -78 7 -169q18 -88 68 -155q38 -50 53 -27q12 21 13 127.5t-11 175.5zM550 248q0 109 -8 109q-12 0 -64.5 -88.5t-44.5 -97.5q5 -5 24 -12t40 -11l53 -10v110z" />
    <glyph glyph-name="Ucircumflex" unicode="&#xdb;" horiz-adv-x="1094" 
d="M436 882q3 2 8 6q19 15 26.5 21t22.5 10.5t21.5 4.5t30.5 -5.5t40.5 -11.5t59.5 -21q13 -5 20 -7q9 -4 11 -7.5t-2.5 -9t-17.5 -15.5q-19 -15 -36.5 -14.5t-59.5 18.5q-44 17 -62.5 16.5t-56.5 -21.5q-65 -35 -62 -19q3 13 57 55zM191 740q54 39 111.5 46t82.5 -23
q21 -25 43 -25q32 0 52.5 -35.5t21.5 -93.5q3 -78 15 -120q5 -16 7 7q2 28 -2 88q-9 144 7 177q8 15 17 -17q2 -6 4 -14q12 -48 15 -159q0 -67 12 -260q4 -51 7 -79t7.5 -45.5t10 -23t15.5 -5.5q12 0 30.5 9t32.5 21q21 19 29 62t15 185q9 184 1 204q-5 10 -19 4
q-16 -6 -18.5 -2t8.5 24q22 36 60 71q26 25 49.5 32t71.5 5q77 -3 84 -10q10 -10 -27.5 -55t-70.5 -63l-48 -25v-223v-224l63 12q67 10 70 10q62 0 65.5 -25.5t-52.5 -84.5q-36 -37 -62 -48t-87 -16q-72 -5 -84 0t-12 41q0 39 -13.5 44.5t-37.5 -24.5q-25 -30 -90 -59.5
t-106 -29.5q-91 0 -167.5 61t-108.5 159q-25 73 -20 191t36 190q18 45 16.5 53t-27.5 8q-17 0 -38.5 -7.5t-36.5 -18.5q-38 -27 -45 -20q-10 10 26.5 52.5t86.5 78.5zM363 590q-45 42 -68.5 31t-30.5 -77q-9 -73 15 -168t63 -143q16 -20 22.5 -27.5t13 -9t10 3t10.5 18.5
q19 34 8 187q-6 94 -14.5 130.5t-28.5 54.5zM544 163q4 11 2.5 44t-7.5 69l-13 86l-55 -88q-19 -30 -27.5 -47t-12.5 -31t2.5 -21.5t18.5 -13t35 -11.5q25 -6 38 -3.5t19 16.5z" />
    <glyph glyph-name="Udieresis" unicode="&#xdc;" horiz-adv-x="1094" 
d="M406 908q18 19 28 19t29 -19q18 -18 8.5 -41t-37 -23t-37.5 23t9 41zM562 917q14 12 31 3t20 -31q3 -15 -3.5 -22t-24.5 -7q-25 0 -32.5 19t9.5 38zM224 759q35 17 68.5 26.5t54.5 8.5t21 -13q0 -6 19.5 -18t46.5 -24q20 -7 28 -10.5t18 -10.5t12.5 -11.5t5.5 -18
t3.5 -25.5t0.5 -38q3 -87 15 -137q6 -20 8 7q1 29 -3 102q-10 160 8 171q12 6 19 -18q15 -52 26 -345q12 -232 23 -244q4 -5 23.5 1t41.5 19q34 21 43.5 38.5t9.5 56.5q0 68 12 225q8 134 0 148q-4 8 -22 1q-19 -7 -18 -1q1 8 30 46q44 59 73.5 72.5t95.5 3.5
q53 -9 62 -15.5t-3 -29.5q-7 -15 -29 -34.5t-45 -33.5l-58 -33l5 -218l5 -217l96 5q62 4 78 0t16 -25q0 -13 -13.5 -36.5t-32.5 -44.5q-29 -34 -55.5 -45.5t-92.5 -17.5l-104 -10v51v50l-45 -32q-81 -56 -138 -76.5t-104 -11.5q-129 30 -190 123t-61 260q0 138 28 212
q25 59 19 66q-3 4 -19 4q-12 0 -36.5 -10t-44.5 -23q-49 -29 -55 -19q0 25 51.5 74.5t102.5 74.5zM350 605q-19 10 -30 14.5t-21 5t-14.5 -2.5t-9 -14.5t-6.5 -25.5t-5 -40q-8 -77 20.5 -180.5t65.5 -137.5q24 -21 30.5 -20.5t19.5 24.5q17 31 6 193q-3 45 -4.5 66t-4.5 44
t-5.5 31t-9 18.5t-13 14.5t-19.5 10zM544 170q4 10 2.5 43.5t-7.5 67.5l-13 84l-57 -93q-15 -24 -27 -46.5t-17.5 -36.5t-3.5 -16q6 -9 60 -18q30 -6 43 -2.5t20 17.5z" />
    <glyph glyph-name="Yacute" unicode="&#xdd;" horiz-adv-x="1210" 
d="M494 1009q96 74 106 62.5t-79 -92.5q-71 -63 -88 -46q-16 16 61 76zM113 820q2 2 6 7q13 16 18 22t15.5 12.5t14.5 7t19 -1.5t25 -5.5t37 -12.5q4 -2 6 -2q50 -18 70.5 -38.5t50.5 -82.5q103 -207 20 -424l-43 -115l59 10q59 9 66 17q6 5 -9 308q-7 126 -8 220.5t4 102.5
q11 18 20 -22q14 -64 15 -227q0 -64 4 -117.5t8 -59.5q3 -4 22.5 9.5t41.5 35.5q47 47 92 60t79 -10q31 -22 42 -9t11 70q0 37 -13 60.5t-55 62.5l-68 61l31 43q42 55 67.5 61.5t68.5 -25.5q22 -14 43 -38t27 -41q16 -42 -1.5 -159t-49.5 -184q-28 -57 -134 -176.5
t-150 -143.5q-11 -6 -16 -9t-10.5 -12.5t-6.5 -18.5t-2 -32.5t0 -47t4 -70.5l8 -169l56 -5q24 -3 61.5 3.5t66.5 17.5q47 18 69.5 42t61.5 99q25 47 53 89.5t43 56.5l36 35l72 -42q44 -26 56.5 -43.5t12.5 -52.5q0 -23 -9.5 -48t-23.5 -41q-18 -19 -25 -26t-18.5 -7.5t-20 6
t-30.5 23.5q-83 66 -118 -8q-22 -47 -92.5 -119t-116.5 -94q-64 -30 -212.5 -28t-211.5 34q-52 26 -88 71t-51 97t-8.5 109t36.5 107q18 30 40.5 60.5t37.5 44.5q87 78 96.5 203.5t-61.5 263.5q-34 67 -54.5 88.5t-63.5 33.5q-58 18 -62.5 39.5t39.5 73.5zM761 363
q22 46 16.5 51t-46.5 -26q-30 -23 -46.5 -25t-56.5 13q-36 13 -52.5 13t-31.5 -13q-20 -17 -26 -81t12 -75q14 -9 79 16t94 51q33 30 58 76zM491 8q-8 38 -20 45t-53 -3q-1 0 -39 -6t-64 -9q-55 -8 -67 -16t-12 -40q0 -51 52 -117t112 -90q67 -27 84 -27q14 0 16.5 101.5
t-9.5 161.5z" />
    <glyph glyph-name="agrave" unicode="&#xe0;" horiz-adv-x="564" 
d="M68 650q26 41 118 -18q27 -17 37.5 -24.5t14 -18.5t-2.5 -20.5t-23 -31.5l-29 -39l-62 69q-25 27 -41 52t-12 31zM214 479q25 28 34.5 28.5t43.5 -23.5q51 -36 66 -63.5t25 -101.5q11 -83 25 -121.5t43 -67.5q20 -21 17.5 -31.5t-34.5 -41.5l-44 -45l-32 38l-31 39
l-60 -45l-60 -45l-56 32q-22 11 -33.5 22.5t-18.5 27t-6 42.5t6.5 60.5t16.5 90.5q18 83 33.5 116t64.5 89zM308 175q0 48 -17 58t-60 -14q-41 -22 -39.5 -39.5t47.5 -41.5q33 -18 51 -8.5t18 45.5z" />
    <glyph glyph-name="aacute" unicode="&#xe1;" horiz-adv-x="530" 
d="M234 593q75 66 92 60t-44 -68q-1 -2 -3 -4q-78 -79 -107 -76q-9 1 -9 13q0 5 20.5 27t50.5 48zM179 439l52 69l46 -33q53 -38 72 -69t24 -87q6 -67 24.5 -122.5t41.5 -80.5q19 -18 16 -29t-34 -41l-45 -45l-31 38l-33 40l-51 -43q-46 -40 -69 -40.5t-67 35.5l-47 37
l17 116q20 126 31.5 160.5t52.5 94.5zM295 175v24.5t-1.5 17.5t-2.5 12t-6 5.5t-9.5 1t-14.5 -5t-19 -8.5t-26 -14l-55 -29l45 -35q51 -40 70 -33t19 64z" />
    <glyph glyph-name="acircumflex" unicode="&#xe2;" horiz-adv-x="530" 
d="M181 585q30 37 54 63t31 26q22 0 92 -45t70 -59q0 -18 -23 -48q-11 -15 -19.5 -17.5t-23 5t-48.5 32.5l-68 49l-52 -58q-56 -63 -64 -48q-10 17 49 96zM191 456q26 34 38 40t30 -7q66 -49 85 -79t28 -99q8 -71 30.5 -129t48.5 -74q17 -13 -28 -58l-47 -47l-31 38l-33 40
l-51 -43q-46 -40 -69 -40.5t-69 35.5l-48 40l20 131q17 106 33 147t63 105zM295 167q0 54 -14 61.5t-65 -19.5l-55 -28l45 -35q48 -39 68.5 -34t20.5 55z" />
    <glyph glyph-name="atilde" unicode="&#xe3;" horiz-adv-x="547" 
d="M113 616q46 59 71 50q108 -42 150.5 -49t65.5 14q50 46 51 24t-50 -84l-51 -61l-93 40q-82 37 -109 39.5t-43 -26.5q-6 -12 -14.5 -17.5t-12.5 -0.5q-5 5 5 26t30 45zM193 436q20 28 40.5 45.5t26.5 13.5q8 -4 72 -49q34 -26 43.5 -46.5t9.5 -71.5q0 -78 39 -157
q33 -65 31 -95t-40 -50q-19 -10 -32 -5.5t-31 27.5l-30 38l-52 -48q-22 -22 -30 -29t-21.5 -10t-23 1t-34.5 17q-40 18 -49 34t-9 67q0 90 24.5 176.5t65.5 141.5zM302 177q0 53 -12 63t-38 -21q-9 -10 -21.5 -17.5t-21.5 -7.5q-31 0 -19 -22q9 -16 37 -35
q46 -29 60.5 -21.5t14.5 61.5z" />
    <glyph glyph-name="adieresis" unicode="&#xe4;" horiz-adv-x="514" 
d="M103 606q7 17 23 21t31.5 -6t18.5 -28q5 -25 -21.5 -37.5t-44.5 5.5q-8 8 -10 21t3 24zM257 608q8 20 30 22.5t33 -16.5q10 -15 -8 -43q-19 -22 -42.5 -6t-12.5 43zM166 429q15 22 23 32.5t19.5 18t18.5 7.5t21.5 -7.5t27.5 -18t38 -32.5q27 -24 36.5 -50.5t14.5 -92.5
q7 -102 45 -154l38 -51l-43 -45l-45 -43l-32 42l-31 41l-38 -35q-46 -42 -68 -47t-61 16q-34 17 -42 33.5t-8 65.5q0 89 23.5 176t62.5 144zM279 167q0 53 -12 63t-38 -21q-9 -10 -21.5 -17.5t-21.5 -7.5q-24 0 -22 -16q2 -18 35 -41q46 -32 63 -23.5t17 63.5z" />
    <glyph glyph-name="aring" unicode="&#xe5;" horiz-adv-x="530" 
d="M295 651q22 -17 27.5 -33.5t-0.5 -41.5q-7 -30 -30.5 -46t-51 -11.5t-47.5 29.5q-29 35 -28.5 52t31.5 48t48 31.5t51 -28.5zM272 596q-8 13 -22.5 17t-25.5 -2t-11 -20q0 -23 13 -33q16 -10 35.5 6.5t10.5 31.5zM191 446l40 53l46 -32q53 -38 72 -69t24 -87
q6 -67 24.5 -122.5t41.5 -80.5q19 -18 16 -29t-34 -41l-45 -45l-31 38l-33 40l-51 -43q-46 -40 -69 -40.5t-69 35.5l-46 38l20 131q17 108 32.5 149.5t61.5 104.5zM295 167v24.5t-1.5 17.5t-2.5 12t-6 5.5t-9.5 1t-14.5 -5t-19 -8.5t-26 -14l-55 -29l45 -35q51 -40 70 -33
t19 64z" />
    <glyph glyph-name="ccedilla" unicode="&#xe7;" horiz-adv-x="415" 
d="M158 398q2 2 6 7q12 12 17.5 16.5t11.5 8.5t16 1t19 -6.5t32 -13.5q7 -3 10 -5q65 -30 65 -63q0 -35 -31 -77q-24 -32 -34 -19q-8 13 -53.5 42.5t-55.5 29.5q-8 0 -8 -78q0 -43 8 -69t28 -47q32 -35 50.5 -36t50.5 27q23 20 23 13q0 -9 -48 -79q-12 -17 -17.5 -38
t-1.5 -31q4 -13 -1 -29.5t-18 -30.5q-12 -14 -17.5 -30.5t-2.5 -27.5q10 -23 1 -24q-8 -1 -39 16q-19 10 -21.5 22t10.5 44q13 35 9 48t-36 40q-29 23 -38.5 49t-17.5 98q-7 88 7.5 131t75.5 111z" />
    <glyph glyph-name="egrave" unicode="&#xe8;" horiz-adv-x="398" 
d="M87 552q1 1 4 2q21 14 33 11t66 -35q5 -3 8 -5l74 -43l-38 -40l-38 -41l-68 68q-41 42 -48.5 57.5t7.5 25.5zM173 340q40 51 58.5 58.5t55.5 -12.5q41 -22 29 -65.5t-74 -96.5l-78 -67l45 -28q26 -17 39.5 -18.5t28.5 10.5q26 22 24 5q-3 -20 -41 -76q-37 -54 -60.5 -58
t-63.5 38q-26 27 -30 50t4 94q7 59 20.5 94.5t42.5 71.5zM211 272q-11 17 -18 14t-7 -26q0 -10 5 -14.5t12 -0.5q7 5 9.5 13t-1.5 14z" />
    <glyph glyph-name="eacute" unicode="&#xe9;" horiz-adv-x="365" 
d="M183 547q31 25 58.5 40t33.5 11q9 -5 -22.5 -38.5t-72.5 -65.5t-55 -32q-37 0 -2 34q18 19 60 51zM145 351q19 21 26.5 29.5t19 17.5t15 10.5t13.5 1t15.5 -3.5t19.5 -10q41 -22 29.5 -65.5t-72.5 -96.5q-56 -49 -61 -61t21 -35q21 -19 33.5 -21t32.5 11q28 18 32 11
q0 -16 -28 -62t-50 -65q-23 -22 -34.5 -19.5t-43.5 37.5t-37 56.5t2 97.5q8 68 20 99t47 68zM173 244q11 11 11 19.5t-11 19.5q-16 16 -19 -1q-1 -6 -1 -18t1 -19t3.5 -9t6 0t9.5 8z" />
    <glyph glyph-name="ecircumflex" unicode="&#xea;" horiz-adv-x="464" 
d="M165 562q19 26 38 49.5t31 36.5t13 13q9 0 83 -45q58 -36 70 -64.5t-20 -56.5q-13 -11 -30 -6.5t-50 30.5q-58 43 -68 43q-5 0 -21 -15t-33 -35q-16 -20 -35.5 -35t-29.5 -15q-25 0 52 100zM174 348q44 54 66 60t64 -27l39 -30l-36 -51q-15 -21 -40.5 -47t-45.5 -41
l-51 -36l34 -35q23 -22 35 -24.5t33 11.5q31 19 31 9t-39 -71q-15 -24 -24 -37t-19 -23t-16 -11.5t-15.5 2t-18 11.5t-23.5 24q-33 33 -38.5 55.5t2.5 94.5q6 58 19 93t43 73zM204 254q9 9 10.5 19t-5.5 14q-7 3 -15 -1.5t-11 -15.5q-11 -28 -4 -33.5t25 17.5z" />
    <glyph glyph-name="edieresis" unicode="&#xeb;" horiz-adv-x="381" 
d="M108 509q7 18 26 24t35.5 -2t16.5 -27q0 -13 -6.5 -24.5t-15.5 -15.5q-24 -10 -44.5 6t-11.5 39zM269 469q-33 0 -33 33t33 33t33 -33t-33 -33zM156 345q41 47 59 53.5t55 -12.5q38 -21 27 -57.5t-71 -94.5l-75 -72l37 -29q36 -30 54 -12q17 17 30 17q17 0 -15 -55
q-26 -43 -53 -68q-26 -24 -37 -22t-46 35q-19 19 -31.5 40.5t-9.5 32.5q0 5 6 44t9 64q9 76 61 136zM184 244q19 23 2 34q-6 4 -14.5 -0.5t-12.5 -15.5q-11 -27 -1.5 -34t26.5 16z" />
    <glyph glyph-name="igrave" unicode="&#xec;" horiz-adv-x="398" 
d="M30 585q11 17 41.5 11.5t74.5 -33.5q2 -1 5 -3q18 -11 25 -15t14.5 -11.5t8.5 -10t-1.5 -11.5t-6 -14.5t-13.5 -20.5q-3 -4 -4 -7l-28 -43l-63 72q-61 73 -53 86zM143 407q12 19 25.5 28t22.5 4q41 -24 48 -38.5t-5 -47.5q-17 -43 -5 -158q9 -91 25 -86q16 11 15 -4
q-4 -30 -44 -77l-43 -48l-34 35q-23 22 -25.5 36.5t10.5 41.5q18 41 19 137t-18 114q-11 12 -9 25.5t18 37.5z" />
    <glyph glyph-name="iacute" unicode="&#xed;" horiz-adv-x="299" 
d="M120 608q58 116 69 116q9 0 11.5 -4.5t-2 -21.5t-15.5 -43t-33 -77q-48 -108 -66 -105l-4 2q-17 17 40 133zM93 417q13 19 26.5 28t21.5 4q41 -24 48.5 -38.5t-5.5 -47.5q-16 -43 -5 -158q10 -91 25 -86q17 11 16 -4q-4 -30 -44 -77l-43 -48l-35 35q-22 22 -24.5 36.5
t9.5 41.5q19 41 19.5 137t-17.5 114q-11 12 -9.5 25.5t17.5 37.5z" />
    <glyph glyph-name="icircumflex" unicode="&#xee;" horiz-adv-x="315" 
d="M110 555q28 37 40.5 42t37.5 -11q14 -10 26 -28t13 -33q5 -28 0.5 -29.5t-38.5 19.5q-31 21 -42.5 21t-33.5 -21q-38 -35 -38 -18q1 16 35 58zM105 417q12 19 25.5 28t22.5 4q40 -24 46.5 -39.5t-5.5 -56.5q-17 -53 -4 -160q10 -79 26 -74q17 11 15 -4q-4 -30 -43 -77
l-43 -48l-35 35q-22 22 -25 36.5t10 41.5q19 41 19.5 137t-18.5 114q-11 12 -9 25.5t18 37.5z" />
    <glyph glyph-name="idieresis" unicode="&#xef;" horiz-adv-x="348" 
d="M201 542q21 14 34.5 4t13.5 -39q0 -13 -7.5 -22.5t-17.5 -9.5q-26 0 -35.5 27t12.5 40zM58 525q8 13 28.5 14.5t37.5 -7.5t17 -23.5t-14.5 -23.5t-33.5 -8.5t-30 12.5q-16 16 -5 36zM123 417q12 19 25.5 28t22.5 4q40 -24 47 -39.5t-6 -56.5q-16 -53 -4 -160
q10 -79 26 -74q17 11 15 -4q-3 -30 -43 -77l-43 -48l-35 35q-22 22 -25 36.5t10 41.5q19 41 19.5 137t-17.5 114q-12 12 -10 25.5t18 37.5z" />
    <glyph glyph-name="eth" unicode="&#xf0;" horiz-adv-x="530" 
d="M171 688q57 65 59 54q0 -7 -14 -37q-21 -46 2.5 -85.5t71.5 -39.5q21 0 42 -8t30 -20q35 -49 13 -46q-8 0 -22 8q-46 24 -36 -8q9 -28 61 -96q42 -56 57.5 -89.5t15.5 -69.5q0 -49 -36.5 -110.5t-99.5 -119.5l-41 -37l-70 51l-71 52l10 84q5 37 20.5 80t32.5 69
q24 37 28.5 56.5t-7.5 39.5q-10 19 -22.5 24.5t-33.5 0.5q-22 -6 -36.5 0t-29.5 27q-18 26 -18 35t18 21q10 8 17.5 26t7.5 35q0 19 14.5 48t36.5 55zM378 178q-11 29 -66 113q-44 59 -55 63q-9 2 -20 -18q-1 -1 -1 -2q-8 -16 -12 -44.5t-2 -53.5q3 -36 15.5 -55.5
t46.5 -42.5q37 -25 51 -28t30 13q10 10 13.5 25.5t-0.5 29.5z" />
    <glyph glyph-name="ntilde" unicode="&#xf1;" horiz-adv-x="530" 
d="M85 628q11 15 16.5 22t14.5 15t13.5 11t16 4.5t18 0.5t24 -5.5t30.5 -9t41 -13.5l91 -32l36 35q35 35 36 16q1 -26 -44 -81q-2 -3 -5 -6l-48 -58l-103 49l-102 50l-30 -36q-31 -39 -37 -29q-8 12 25 58q3 4 7 9zM235 490q25 26 45.5 26.5t51.5 -22.5q12 -10 30.5 -17.5
t31.5 -7.5q22 0 22.5 -6t-20.5 -37q-17 -26 -20.5 -57.5t4.5 -103.5q5 -49 13.5 -91t15.5 -53q9 -15 0.5 -43t-27.5 -50.5t-37 -22.5q-20 0 -29.5 15.5t-13 57t0.5 114.5q4 121 -16 174t-68 53q-25 0 -28.5 -16.5t3.5 -100.5q4 -49 14.5 -95.5t21.5 -62.5q18 -27 18 -41
t-18 -47q-24 -49 -44 -59.5t-43 13.5q-15 15 -21 55t-7 131q-3 91 -9.5 130.5t-22.5 57.5q-19 21 -18 32.5t25 40.5q22 29 35.5 33t40.5 -8q25 -11 38.5 -9.5t30.5 17.5z" />
    <glyph glyph-name="ograve" unicode="&#xf2;" horiz-adv-x="448" 
d="M82 663q20 33 122 -25l63 -35l-33 -48l-35 -48l-63 71q-62 72 -54 85zM241 509q35 14 77 11q30 -2 36.5 -22.5t10.5 -128.5l5 -149l-78 -112q-31 -46 -58 -79.5t-33 -33.5q-10 0 -73 28l-58 28v131q0 71 4 99.5t16 52t48 70.5q27 37 57 67.5t46 37.5zM257 371
q-6 17 -34 21t-42 -11q-12 -9 -12 -96q0 -57 7 -74.5t35 -29.5q54 -25 65 -13.5t1 87.5q-12 96 -20 116z" />
    <glyph glyph-name="oacute" unicode="&#xf3;" horiz-adv-x="448" 
d="M231 610q78 68 96 62q16 -6 -48 -70l-4 -4q-76 -76 -97 -65q-6 4 -6 10t6.5 15.5t19.5 22t33 29.5zM251 509q35 14 77 11q30 -2 36.5 -22.5t10.5 -128.5l5 -149l-78 -112q-31 -46 -58 -79.5t-33 -33.5q-10 0 -73 28l-58 28v131q0 71 4 99.5t16 52t48 70.5q27 37 57 67.5
t46 37.5zM267 371q-6 17 -34 21t-42 -11q-12 -9 -12 -99q0 -60 7.5 -76.5t35.5 -28.5q21 -8 32 -11.5t20.5 -3t13 5t5 17t0 27.5t-5.5 43q-12 96 -20 116z" />
    <glyph glyph-name="ocircumflex" unicode="&#xf4;" horiz-adv-x="481" 
d="M198 633q70 91 76 91q8 0 83 -45q57 -36 69 -64.5t-20 -56.5q-13 -11 -30 -6t-52 33l-60 44l-56 -54q-66 -63 -67 -40q-1 21 57 98zM279 504q66 30 90.5 11.5t43.5 -112.5q14 -77 13 -105.5t-18 -65.5q-30 -62 -96.5 -149.5t-83.5 -87.5q-22 0 -77 35l-54 33l6 129
q5 88 16 121t54 90q25 33 56 63t50 38zM289 378q-11 18 -43.5 14t-41.5 -24q-8 -25 1 -93.5t23 -80.5q12 -13 53 -25q29 -9 33 2.5t-4 88.5q-12 106 -21 118z" />
    <glyph glyph-name="otilde" unicode="&#xf5;" horiz-adv-x="514" 
d="M145 653l33 34l109 -34q80 -26 97 -26.5t36 22.5q17 25 20 25t4 -26q0 -14 -12 -35.5t-29 -37.5q-26 -25 -29 -35.5t12 -21.5q25 -17 35 -144l12 -127l-88 -126q-37 -53 -66 -89.5t-35 -36.5q-10 0 -73 28l-58 28v131q0 71 4 99.5t16 51.5t48 71q30 40 63.5 70t55.5 38
l50 18l-73 38q-63 34 -105.5 37.5t-51.5 -22.5q-13 -25 -25 -25q-20 0 11 47q16 23 39 48zM300 371q-6 17 -34 21t-42 -11q-11 -9 -11 -99q0 -60 7 -76.5t36 -28.5q20 -8 31 -11.5t20.5 -3t13 5t5 17t0 27.5t-5.5 43q-12 96 -20 116z" />
    <glyph glyph-name="odieresis" unicode="&#xf6;" horiz-adv-x="464" 
d="M146 600q0 18 8.5 24.5t28.5 3.5q33 -5 41.5 -32t-20.5 -38q-27 -10 -42.5 1t-15.5 41zM304 614q13 23 35.5 16.5t22.5 -32.5q0 -14 -7 -23.5t-17 -9.5q-22 0 -33 16t-1 33zM259 494q77 34 104.5 -1t29.5 -170q1 -70 -10.5 -102.5t-67.5 -112.5q-32 -48 -62.5 -82.5
t-39.5 -35.5q-10 -2 -34 6t-48 22l-54 35l5 127q5 89 15.5 121.5t53.5 89.5q27 35 58 65t50 38zM269 368q-8 12 -37.5 13.5t-40.5 -10.5q-15 -14 -11 -83.5t21 -90.5q7 -11 25 -22t35 -16q29 -9 33 2.5t-4 88.5q-12 106 -21 118z" />
    <glyph glyph-name="divide" unicode="&#xf7;" horiz-adv-x="381" 
d="M173 316q35 9 44 8t17 -15q8 -13 -5 -28.5t-32 -20t-33 3.5q-46 39 9 52zM77 180q11 19 33.5 25t82.5 6q49 0 67.5 -2.5t25 -9t6.5 -24.5q0 -15 -2.5 -21t-14 -11t-34.5 -3.5t-65 2.5q-94 4 -103 14q-5 6 4 24zM143 69q20 25 33 25t33 -25q14 -15 12.5 -25.5t-17.5 -27.5
q-20 -19 -28 -19t-28 19q-17 17 -18 27.5t13 25.5z" />
    <glyph glyph-name="ugrave" unicode="&#xf9;" horiz-adv-x="613" 
d="M164 674q24 15 45.5 9.5t72.5 -38.5l63 -44l-40 -41l-38 -40l-61 72q-61 70 -42 82zM363 449l33 43l40 -40q28 -28 30 -42t-13 -54q-25 -56 -10 -104q12 -44 31.5 -69t34.5 -16q6 4 10.5 0t4.5 -13q0 -19 -50.5 -82.5t-65.5 -63.5q-6 0 -19 15.5t-24 36.5l-27 51l-61 -59
l-61 -60l-62 51q-18 15 -25.5 21.5t-16.5 19t-11 19t-5 25.5t-3 35v51q0 53 -5.5 91.5t-14.5 47.5q-11 11 -8 25t23 40q30 41 46.5 43.5t56.5 -25.5q27 -19 30.5 -31t-9.5 -40q-51 -113 34 -183q21 -18 30 -24.5t18 -8t13.5 2.5t14.5 17q22 29 15 134q-5 64 0 91t26 55z" />
    <glyph glyph-name="uacute" unicode="&#xfa;" horiz-adv-x="613" 
d="M249 582q85 65 97 60q6 -2 6 -12q0 -16 -73 -75.5t-91 -59.5q-38 0 13 46q18 17 48 41zM373 439l33 43l40 -41q26 -25 30.5 -39.5t-7.5 -35.5q-7 -13 -12.5 -40t-5.5 -49q0 -29 11.5 -60.5t28 -49.5t28.5 -11q6 5 10.5 1t4.5 -13q0 -19 -50.5 -82.5t-65.5 -63.5
q-6 0 -19 15.5t-24 36.5l-27 53l-59 -60l-60 -59l-63 49q-13 10 -19 15.5t-14 12t-11.5 13t-7.5 11.5t-5.5 15t-3 17t-1.5 23.5t-0.5 27.5t-0.5 36q0 53 -5.5 91.5t-14.5 47.5q-11 11 -8 25t23 40q30 41 46.5 43.5t56.5 -25.5q27 -19 30.5 -31t-9.5 -40q-27 -60 -17.5 -104
t57.5 -80q30 -23 47 -28.5t27 6.5t11.5 46t-0.5 90q-5 70 0 99t26 55z" />
    <glyph glyph-name="ucircumflex" unicode="&#xfb;" horiz-adv-x="613" 
d="M186 628q18 25 35.5 46.5t28 34t12.5 12.5q11 0 91.5 -52.5t80.5 -60.5q-1 -14 -23.5 -41.5t-32.5 -27.5q-13 0 -69 44l-58 43l-57 -54q-66 -64 -65 -41q0 21 57 97zM373 449l33 43l40 -41q26 -25 30.5 -39.5t-7.5 -35.5q-7 -13 -12.5 -40t-5.5 -49q0 -29 11.5 -60.5
t28 -49.5t28.5 -11q6 5 10.5 1t4.5 -13q0 -19 -50.5 -82.5t-65.5 -63.5q-6 0 -19 15.5t-24 36.5l-27 53l-59 -60l-60 -59l-63 49q-13 10 -19 15.5t-14 12t-11.5 13t-7.5 11.5t-5.5 15t-3 17t-1.5 23.5t-0.5 27.5t-0.5 36q0 53 -5.5 91.5t-14.5 47.5q-11 11 -8 25t23 40
q30 41 46.5 43.5t56.5 -25.5q27 -19 30.5 -31t-9.5 -40q-27 -60 -17.5 -104t57.5 -80q30 -23 47 -28.5t27 6.5t11.5 46t-0.5 90q-5 70 0 99t26 55z" />
    <glyph glyph-name="udieresis" unicode="&#xfc;" horiz-adv-x="613" 
d="M136 590q0 17 9.5 24t32 7t32 -7t9.5 -24q0 -25 -18 -37t-43 -3q-9 4 -15.5 15t-6.5 25zM297 611q13 10 29.5 10t30.5 -10q11 -11 -1 -33.5t-29.5 -22.5t-29 22.5t-0.5 33.5zM373 449l33 43l40 -41q26 -25 30.5 -39.5t-7.5 -35.5q-7 -13 -12.5 -40t-5.5 -49
q0 -29 11.5 -60.5t28 -49.5t28.5 -11q6 5 10.5 1t4.5 -13q0 -19 -50.5 -82.5t-65.5 -63.5q-6 0 -19 15.5t-24 36.5l-27 53l-59 -60l-60 -59l-63 49q-13 10 -19 15.5t-14 12t-11.5 13t-7.5 11.5t-5.5 15t-3 17t-1.5 23.5t-0.5 27.5t-0.5 36q0 53 -5.5 91.5t-14.5 47.5
q-11 11 -8 25t23 40q30 41 46.5 43.5t56.5 -25.5q27 -19 30.5 -31t-9.5 -40q-51 -113 32 -181q32 -27 46.5 -31.5t29.5 8.5q15 12 18.5 40t-1.5 94q-5 70 0 99t26 55z" />
    <glyph glyph-name="yacute" unicode="&#xfd;" horiz-adv-x="580" 
d="M320 491q75 66 96 62q17 -2 -33 -54q-9 -9 -20 -19q-33 -33 -61 -50.5t-37 -12.5q-5 4 -1 14t18 25.5t38 34.5zM401 367q27 27 36 28.5t24 -18.5q22 -28 21.5 -75.5t-21.5 -90.5q-17 -34 -111.5 -125.5t-153.5 -130.5q-37 -25 -41.5 -61.5t26.5 -69.5q30 -33 107 -31.5
t120 36.5q31 25 33.5 33t-18.5 23q-19 13 -20 25.5t12 39.5q8 19 22.5 31t30.5 12q19 0 26 -12t7 -48q0 -37 -18 -66t-80 -91q-51 -52 -74 -69t-44 -23t-68 -6q-147 0 -147 98q0 32 42 111t94 144q39 50 36 114.5t-46 110.5l-45 46l37 44l34 44l47 -33q43 -31 55 -75
t-6 -109q-18 -69 -9 -78q8 -7 35 15.5t50.5 55.5t23.5 50q0 14 -8 35.5t-19 36.5q-18 27 -17 39t27 40z" />
    <glyph glyph-name="ydieresis" unicode="&#xff;" horiz-adv-x="580" 
d="M209 500q7 22 30 23.5t41 -16.5q20 -20 10 -42.5t-38 -22.5t-40.5 17t-2.5 41zM368 493q0 20 14 26.5t29.5 -3t19.5 -29.5q3 -15 -4 -21.5t-24 -6.5q-19 0 -27 8t-8 26zM461 379q22 -28 21.5 -75.5t-21.5 -90.5q-17 -34 -111.5 -125.5t-153.5 -130.5q-37 -25 -41.5 -61.5
t26.5 -69.5q30 -33 107 -31.5t120 36.5q31 25 33.5 33t-18.5 23q-19 13 -20 25.5t12 39.5q8 19 22.5 31t30.5 12q19 0 26 -12t7 -48q0 -37 -18 -66t-80 -91q-51 -52 -74 -69t-44 -23t-68 -6q-147 0 -147 98q0 32 42 111t94 144q39 50 36 114.5t-46 110.5l-45 46l37 44l34 44
l47 -33q43 -31 55 -75t-6 -109q-18 -69 -9 -78q7 -7 34 15.5t51 54t24 46.5q0 13 -8 34.5t-19 38.5q-20 29 -18.5 41t28.5 40.5t36 30t24 -18.5z" />
    <glyph glyph-name="Ydieresis" unicode="&#x178;" horiz-adv-x="1210" 
d="M380 982q6 16 25.5 19t37.5 -7t21 -27q3 -11 -3.5 -22.5t-16.5 -15.5q-26 -10 -49.5 9.5t-14.5 43.5zM542 988q14 23 36 16.5t22 -32.5q0 -14 -6.5 -23.5t-16.5 -9.5q-22 0 -33.5 16t-1.5 33zM113 821q2 2 6 7q13 16 18 22t15.5 12.5t14.5 7t19 -1.5t25 -5.5t37 -12.5
q4 -2 6 -2q50 -18 70.5 -38.5t50.5 -82.5q103 -206 18 -424l-43 -115l61 10q52 8 66 15q6 5 -9 310q-8 123 -9.5 219.5t4.5 101.5q9 15 17 -18q19 -71 19 -245q3 -149 12 -161q3 -4 22.5 9.5t41.5 35.5q47 47 92 60t79 -10q31 -22 42 -9t11 70q0 37 -13 60.5t-55 62.5
l-68 61l31 43q43 56 69 62t74 -31q25 -19 43.5 -44.5t22.5 -47.5q10 -50 -8 -157t-46 -168q-28 -57 -134 -176.5t-150 -143.5q-11 -6 -16 -9t-10.5 -12.5t-6.5 -18.5t-2 -32.5t0 -47t4 -70.5l8 -169l56 -5q24 -3 61.5 3.5t66.5 17.5q47 18 69.5 42t61.5 99q25 47 53 89.5
t43 56.5l36 35l72 -42q44 -26 56.5 -43.5t12.5 -52.5q0 -23 -9.5 -48t-23.5 -41q-18 -19 -25 -26t-18.5 -7.5t-20 6t-30.5 23.5q-83 66 -118 -8q-22 -47 -92.5 -119t-116.5 -94q-64 -30 -212.5 -28t-211.5 34q-69 36 -109 99t-40 138q0 69 23.5 120.5t90.5 129.5
q28 33 53 72.5t32 63.5q22 66 9 157t-57 178q-34 66 -54.5 87t-63.5 33q-58 18 -62.5 39.5t39.5 73.5zM761 364q22 46 16.5 51t-46.5 -26q-30 -23 -46.5 -25t-56.5 13q-36 13 -52.5 13t-31.5 -13q-20 -17 -26 -81t12 -75q14 -9 79 16t94 51q33 30 58 76zM491 9q-8 38 -20 45
t-53 -3q-1 0 -39 -6t-64 -9q-55 -8 -67 -16t-12 -40q0 -51 52 -117t112 -90q67 -27 84 -27q14 0 16.5 101.5t-9.5 161.5z" />
    <glyph glyph-name="endash" unicode="&#x2013;" horiz-adv-x="663" 
d="M28 760q25 21 69.5 26t192.5 2l223 -1v-40q0 -26 -8 -30.5t-43 2.5q-56 10 -262 10q-174 1 -186 8q-7 6 14 23z" />
    <glyph glyph-name="emdash" unicode="&#x2014;" horiz-adv-x="961" 
d="M50 745q38 22 106.5 26.5t303.5 3.5q292 -1 329 -10q21 -5 22 -19q1 -3 1 -7q0 -21 -12 -26q-19 -7 -172 3h-1h-1h-1h-1h-1h-1h-1h-1h-1h-1h-1h-1h-1h-1h-1l-1 1h-1h-1h-1h-1h-1h-1h-1h-1h-1h-2q-189 14 -411 7l-198 -8z" />
    <glyph glyph-name="quoteleft" unicode="&#x2018;" horiz-adv-x="348" 
d="M88 1347q26 37 52 39t49 -31q9 -14 6 -31t-14 -27.5t-25.5 -15t-27.5 7.5q-13 11 -26 9t-36 -18q-28 -20 -28 -13q0 10 50 80zM10 1214q2 8 6 13.5t7.5 7t6.5 -0.5q4 -4 0.5 -12.5t-12.5 -17.5q-14 -13 -14 -8q0 4 6 18z" />
    <glyph glyph-name="quoteright" unicode="&#x2019;" horiz-adv-x="365" 
d="M27 1378q34 38 65.5 26.5t81.5 -79.5q54 -75 35 -69q-9 3 -37 28q-26 24 -40 28t-33 -8q-18 -11 -31.5 -8.5t-34.5 21.5q-23 21 -24 30t18 31z" />
    <glyph glyph-name="quotedblleft" unicode="&#x201c;" horiz-adv-x="415" 
d="M96 1413q24 27 45.5 27t47.5 -29q19 -22 18 -31t-25 -30q-19 -18 -30.5 -20.5t-22.5 8.5q-10 10 -22.5 8t-36.5 -18q-31 -19 -33.5 -17.5t13.5 31.5q22 44 46 71zM133 1265q30 47 47.5 62t39.5 11q22 -3 33.5 -20t8.5 -39t-22 -37q-23 -21 -46 -3q-20 16 -48.5 -3.5
t-44.5 -61.5q-10 -22 -14 -21q-3 0 -3 8q-1 10 13.5 40.5t35.5 63.5z" />
    <glyph glyph-name="quotedblright" unicode="&#x201d;" horiz-adv-x="431" 
d="M91 1433q36 27 63 16t73 -71q68 -90 50 -86q-10 1 -45 36q-33 32 -46.5 37t-29.5 -8q-15 -13 -27.5 -10.5t-34.5 25.5q-26 26 -26.5 34t23.5 27zM28 1312q26 30 47 28.5t53 -35.5q31 -35 67.5 -94t36.5 -76q0 -12 -24 23q-4 7 -9 15q-29 46 -56 60.5t-49 -6.5
q-10 -9 -22.5 -5t-33.5 24q-26 25 -27.5 35t17.5 31z" />
    <glyph glyph-name="ellipsis" unicode="&#x2026;" horiz-adv-x="646" 
d="M409 712q38 29 59 23q17 -5 -4 -31q-17 -21 8 -41q54 -44 -12 -111l-34 -39l-40 58q-31 46 -54 49q-10 1 -11 -10q0 -8 5 -22q4 -11 0.5 -25.5t-11.5 -24.5q-14 -17 -26 -12t-42 40q-44 53 -47 38q-1 -5 0 -18q0 -10 -53 -43l-53 -33l-51 52l-51 51l63 61q30 31 43.5 41
t24.5 10t28 -11q23 -13 36.5 -13t37.5 13q25 13 38 11.5t32 -18.5q30 -27 52.5 -26t61.5 31z" />
    <glyph glyph-name="euro" unicode="&#x20ac;" horiz-adv-x="680" 
d="M456 787q20 10 30 14.5t20 5.5t13.5 -1.5t6.5 -13t3.5 -23t0.5 -37.5q0 -47 -8 -71t-32 -46l-38 -37l-11 85q-13 82 -24 82q-18 0 -101.5 -91t-83.5 -111q0 -25 11 -27q13 -2 103 31q76 29 81 22q1 -4 -3 -14q-10 -30 -10 -40q0 -11 -91 -41q-58 -17 -74.5 -30t-16.5 -40
q0 -13 0.5 -19.5t4.5 -12t9.5 -6t17.5 2t26.5 7t39.5 13.5q51 18 59.5 16t8.5 -32q0 -22 -7.5 -31.5t-29 -17t-74.5 -18.5q-16 -2 -23 -4t-14.5 -7t-10 -9.5t-5 -17.5t-2.5 -25v-38q0 -24 2 -44.5t5 -32.5t6 -12q16 0 101 26q63 19 74.5 29.5t5.5 42.5q-7 27 0.5 41t35.5 32
q41 23 54.5 15t13.5 -55q0 -48 -43 -75q-46 -31 -179 -83.5t-146 -45.5q-5 4 -9 39t-4 79v107l-50 -6q-45 -8 -44 9q2 17 49 40q45 23 45 62q0 30 -8.5 31.5t-60.5 -16.5q-69 -25 -75 -19q-14 14 10.5 39.5t65.5 42.5q36 14 52 31t26 50q9 31 38.5 63t92.5 79
q107 82 166 113z" />
    <glyph glyph-name="space" unicode=" " horiz-adv-x="651" 
 />
  </font>
</defs>
</svg>
